<svg xmlns="http://www.w3.org/2000/svg" enable-background="new 0 0 2000 2000" viewBox="0 0 2000 2000"><path fill="#f8f0ea" fill-rule="evenodd" d="M997.9,1498.7c185.4,0,356,2.8,491.4,7.4c331.3-189.4,216.6-558.5,97.6-767.3
			c-165.6-290.6-556.8-395.1-718.6-163.2c-219.7,314.7-431.5,204.9-546,443.9c-114.4,239,59.3,468.2,184.2,486.6
			C641.9,1501.4,812.5,1498.7,997.9,1498.7z" class="coloreaeff8 svgShape" clip-rule="evenodd"/><path fill="#eeddd2" fill-rule="evenodd" d="M997.9,1498.7c440.2,0,797,15.6,797,34.9c0,19.3-356.8,34.9-797,34.9c-440.2,0-797-15.6-797-34.9
			C200.9,1514.3,557.7,1498.7,997.9,1498.7z" class="colord2dfee svgShape" clip-rule="evenodd"/><path fill="#fff" fill-rule="evenodd" d="M1254.9,535.1c199.1,44.3,325.7,227.4,338.1,315.8c5.1,36.3-4.3-48.6-105.9-125.9
			c-90.7-69.1-161.4-81.9-269.4-90.2c-76.3-5.9-156.2-15.3-150.5-60.8C1071.8,538.1,1126.4,506.5,1254.9,535.1z" class="colorffffff svgShape" clip-rule="evenodd"/><path fill="#fff" fill-rule="evenodd" d="M940,662.7c-2.9,39.2-8.6,44.6-46,47.6c37.3,3,43.1,8.4,46,47.6c2.9-39.2,8.6-44.6,46-47.6
			C948.7,707.3,942.9,701.9,940,662.7L940,662.7z M1091.8,766c-1.5,20.9-4.6,23.8-24.5,25.4c19.9,1.6,23,4.5,24.5,25.4
			c1.5-20.9,4.6-23.8,24.5-25.4C1096.4,789.8,1093.3,786.9,1091.8,766L1091.8,766z M1025.3,605.1c-1.5,21.2-4.7,24.1-24.8,25.7
			c20.2,1.6,23.3,4.6,24.8,25.7c1.5-21.2,4.7-24.1,24.8-25.7C1030,629.2,1026.9,626.3,1025.3,605.1z" class="colorffffff svgShape" clip-rule="evenodd"/><path fill="#fff" fill-rule="evenodd" d="M885,1304.6c2.3,31.7,7,36.1,37.2,38.5c-30.2,2.4-34.9,6.8-37.2,38.5c-2.3-31.7-7-36.1-37.2-38.5
			C878,1340.7,882.7,1336.3,885,1304.6L885,1304.6z M762.1,1388.2c1.2,16.9,3.7,19.3,19.9,20.6c-16.1,1.3-18.6,3.6-19.9,20.6
			c-1.2-16.9-3.7-19.3-19.9-20.6C758.4,1407.5,760.9,1405.2,762.1,1388.2L762.1,1388.2z M815.9,1257.9c1.2,17.1,3.8,19.5,20.1,20.8
			c-16.4,1.3-18.9,3.7-20.1,20.8c-1.2-17.1-3.8-19.5-20.1-20.8C812.1,1277.4,814.7,1275.1,815.9,1257.9z" class="colorffffff svgShape" clip-rule="evenodd"/><path fill="#fff" fill-rule="evenodd" d="M1368.1,1226.4c-1.8,24.3-5.4,27.6-28.5,29.5c23.2,1.9,26.7,5.2,28.5,29.5c1.8-24.3,5.4-27.6,28.5-29.5
			C1373.4,1254,1369.9,1250.7,1368.1,1226.4L1368.1,1226.4z M1462.2,1290.5c-0.9,13-2.9,14.8-15.2,15.8c12.4,1,14.3,2.8,15.2,15.8
			c0.9-13,2.9-14.8,15.2-15.8C1465.1,1305.2,1463.1,1303.4,1462.2,1290.5L1462.2,1290.5z M1421,1190.7c-1,13.1-2.9,14.9-15.4,16
			c12.5,1,14.5,2.8,15.4,16c1-13.1,2.9-14.9,15.4-16C1423.9,1205.6,1421.9,1203.8,1421,1190.7z" class="colorffffff svgShape" clip-rule="evenodd"/><path fill="#e9b18b" fill-rule="evenodd" d="M719.7,685.9h504.8c39.4,0,71.6,32.2,71.6,71.6v693.8c0,39.4-32.2,71.6-71.6,71.6H719.7
				c-39.4,0-71.6-32.2-71.6-71.6V757.5C648.1,718.1,680.3,685.9,719.7,685.9z" class="color8bbae9 svgShape" clip-rule="evenodd"/><path fill="#f7e1d2" fill-rule="evenodd" d="M719.7,706.1h504.8c28.3,0,51.4,23.1,51.4,51.4v693.8c0,28.3-23.1,51.4-51.4,51.4H719.7
				c-28.3,0-51.4-23.1-51.4-51.4V757.5C668.3,729.3,691.5,706.1,719.7,706.1z" class="colord2e5f7 svgShape" clip-rule="evenodd"/><rect width="715.8" height="523.7" x="611.5" y="816.8" fill="#fff" fill-rule="evenodd" class="colorffffff svgShape" clip-rule="evenodd" transform="matrix(.00792 -1 1 .00792 -116.927 2039.477)"/><path fill="#e9b18b" fill-rule="evenodd" d="M846.7,654.3h88.8v-18.7c0-20.1,16.5-36.6,36.6-36.6l0,0c20.1,0,36.6,16.5,36.6,36.6v18.7h88.8
				c12.2,0,22.1,10,22.1,22.1v42.1c0,12.2-10,22.1-22.1,22.1H846.7c-12.2,0-22.1-10-22.1-22.1v-42.1
				C824.6,664.2,834.6,654.3,846.7,654.3L846.7,654.3z M972.1,620.8c-8.9,0-16.2,7.3-16.2,16.2c0,8.9,7.3,16.2,16.2,16.2
				c8.9,0,16.2-7.3,16.2-16.2C988.3,628.1,981.1,620.8,972.1,620.8z" class="color8bbae9 svgShape" clip-rule="evenodd"/><path fill="#e9b18b" fill-rule="evenodd" d="M831.7,841.9h366.2c1.4,0,2.6,1.1,2.6,2.6l0,0c0,1.4-1.2,2.6-2.6,2.6H831.7c-1.4,0-2.6-1.1-2.6-2.6l0,0
			C829.1,843,830.3,841.9,831.7,841.9z" class="color8bbae9 svgShape" clip-rule="evenodd"/><path fill="#f2bd99" fill-rule="evenodd" d="M764.3,841.3c0-8.7,7-15.7,15.7-15.7c8.7,0,15.7,7,15.7,15.7s-7,15.7-15.7,15.7
				C771.4,857,764.3,850,764.3,841.3L764.3,841.3z M780,859.7c10.2,0,18.4-8.2,18.4-18.4c0-10.2-8.2-18.4-18.4-18.4
				c-10.2,0-18.4,8.2-18.4,18.4C761.6,851.4,769.9,859.7,780,859.7z" class="color99c5f2 svgShape" clip-rule="evenodd"/><path fill="#e9b18b" fill-rule="evenodd" d="M780,832.8c-4.7,0-8.5,3.8-8.5,8.5c0,4.7,3.8,8.5,8.5,8.5c4.7,0,8.5-3.8,8.5-8.5
				C788.5,836.6,784.7,832.8,780,832.8z" class="color8bbae9 svgShape" clip-rule="evenodd"/><path fill="#e9b18b" fill-rule="evenodd" d="M831.7,919h270.5c1.4,0,2.6,1.1,2.6,2.6l0,0c0,1.4-1.2,2.6-2.6,2.6H831.7c-1.4,0-2.6-1.1-2.6-2.6l0,0
			C829.1,920.1,830.3,919,831.7,919z" class="color8bbae9 svgShape" clip-rule="evenodd"/><path fill="#f2bd99" fill-rule="evenodd" d="M764.3,918.4c0-8.7,7-15.7,15.7-15.7c8.7,0,15.7,7,15.7,15.7c0,8.7-7,15.7-15.7,15.7
				C771.4,934.1,764.3,927.1,764.3,918.4L764.3,918.4z M780,936.8c10.2,0,18.4-8.2,18.4-18.4c0-10.2-8.2-18.4-18.4-18.4
				c-10.2,0-18.4,8.2-18.4,18.4C761.6,928.6,769.9,936.8,780,936.8z" class="color99c5f2 svgShape" clip-rule="evenodd"/><circle cx="780" cy="918.4" r="8.5" fill="#e9b18b" fill-rule="evenodd" class="color8bbae9 svgShape" clip-rule="evenodd"/><path fill="#e9b18b" fill-rule="evenodd" d="M831.7,996.1h366.2c1.4,0,2.6,1.2,2.6,2.6l0,0c0,1.4-1.2,2.6-2.6,2.6H831.7c-1.4,0-2.6-1.1-2.6-2.6l0,0
			C829.1,997.2,830.3,996.1,831.7,996.1z" class="color8bbae9 svgShape" clip-rule="evenodd"/><path fill="#f2bd99" fill-rule="evenodd" d="M764.3,995.5c0-8.7,7-15.7,15.7-15.7c8.7,0,15.7,7,15.7,15.7c0,8.7-7,15.7-15.7,15.7
				C771.4,1011.2,764.3,1004.2,764.3,995.5L764.3,995.5z M780,1013.9c10.2,0,18.4-8.2,18.4-18.4c0-10.2-8.2-18.4-18.4-18.4
				c-10.2,0-18.4,8.2-18.4,18.4C761.6,1005.7,769.9,1013.9,780,1013.9z" class="color99c5f2 svgShape" clip-rule="evenodd"/><circle cx="780" cy="995.5" r="8.5" fill="#e9b18b" fill-rule="evenodd" class="color8bbae9 svgShape" clip-rule="evenodd"/><path fill="#e9b18b" fill-rule="evenodd" d="M831.7,1073.2h297.7c1.4,0,2.6,1.1,2.6,2.6l0,0c0,1.4-1.2,2.6-2.6,2.6H831.7c-1.4,0-2.6-1.1-2.6-2.6l0,0
			C829.1,1074.4,830.3,1073.2,831.7,1073.2z" class="color8bbae9 svgShape" clip-rule="evenodd"/><path fill="#f2bd99" fill-rule="evenodd" d="M764.3,1072.6c0-8.7,7-15.7,15.7-15.7c8.7,0,15.7,7,15.7,15.7c0,8.7-7,15.7-15.7,15.7
				C771.4,1088.3,764.3,1081.3,764.3,1072.6L764.3,1072.6z M780,1091c10.2,0,18.4-8.2,18.4-18.4c0-10.2-8.2-18.4-18.4-18.4
				c-10.2,0-18.4,8.2-18.4,18.4C761.6,1082.8,769.9,1091,780,1091z" class="color99c5f2 svgShape" clip-rule="evenodd"/><circle cx="780" cy="1072.6" r="8.5" fill="#e9b18b" fill-rule="evenodd" class="color8bbae9 svgShape" clip-rule="evenodd"/><path fill="#e9b18b" fill-rule="evenodd" d="M831.7,1150.3h224.2c1.4,0,2.6,1.1,2.6,2.6l0,0c0,1.4-1.2,2.6-2.6,2.6H831.7c-1.4,0-2.6-1.1-2.6-2.6l0,0
			C829.1,1151.5,830.3,1150.3,831.7,1150.3z" class="color8bbae9 svgShape" clip-rule="evenodd"/><path fill="#f2bd99" fill-rule="evenodd" d="M764.3,1149.7c0-8.7,7-15.7,15.7-15.7c8.7,0,15.7,7,15.7,15.7c0,8.7-7,15.7-15.7,15.7
				C771.4,1165.4,764.3,1158.4,764.3,1149.7L764.3,1149.7z M780,1168.1c10.2,0,18.4-8.2,18.4-18.4c0-10.2-8.2-18.4-18.4-18.4
				c-10.2,0-18.4,8.2-18.4,18.4C761.6,1159.9,769.9,1168.1,780,1168.1z" class="color99c5f2 svgShape" clip-rule="evenodd"/><path fill="#e9b18b" fill-rule="evenodd" d="M780,1141.2c-4.7,0-8.5,3.8-8.5,8.5c0,4.7,3.8,8.5,8.5,8.5c4.7,0,8.5-3.8,8.5-8.5
				C788.5,1145,784.7,1141.2,780,1141.2z" class="color8bbae9 svgShape" clip-rule="evenodd"/><path fill="#e9b18b" fill-rule="evenodd" d="M831.7,1227.4h366.2c1.4,0,2.6,1.1,2.6,2.6l0,0c0,1.4-1.2,2.6-2.6,2.6H831.7c-1.4,0-2.6-1.1-2.6-2.6l0,0
			C829.1,1228.6,830.3,1227.4,831.7,1227.4z" class="color8bbae9 svgShape" clip-rule="evenodd"/><path fill="#f2bd99" fill-rule="evenodd" d="M764.3,1226.8c0-8.7,7-15.7,15.7-15.7c8.7,0,15.7,7,15.7,15.7c0,8.7-7,15.7-15.7,15.7
				C771.4,1242.5,764.3,1235.5,764.3,1226.8L764.3,1226.8z M780,1245.3c10.2,0,18.4-8.2,18.4-18.4c0-10.2-8.2-18.4-18.4-18.4
				c-10.2,0-18.4,8.2-18.4,18.4C761.6,1237,769.9,1245.3,780,1245.3z" class="color99c5f2 svgShape" clip-rule="evenodd"/><path fill="#e9b18b" fill-rule="evenodd" d="M780,1218.4c-4.7,0-8.5,3.8-8.5,8.5c0,4.7,3.8,8.5,8.5,8.5c4.7,0,8.5-3.8,8.5-8.5
				C788.5,1222.2,784.7,1218.4,780,1218.4z" class="color8bbae9 svgShape" clip-rule="evenodd"/><path fill="#e9b18b" fill-rule="evenodd" d="M831.7,1304.5h332.1c1.4,0,2.6,1.1,2.6,2.6l0,0c0,1.4-1.2,2.6-2.6,2.6H831.7c-1.4,0-2.6-1.1-2.6-2.6l0,0
			C829.1,1305.7,830.3,1304.5,831.7,1304.5z" class="color8bbae9 svgShape" clip-rule="evenodd"/><path fill="#f2bd99" fill-rule="evenodd" d="M764.3,1304c0-8.7,7-15.7,15.7-15.7c8.7,0,15.7,7,15.7,15.7c0,8.7-7,15.7-15.7,15.7
				C771.4,1319.7,764.3,1312.6,764.3,1304L764.3,1304z M780,1322.4c10.2,0,18.4-8.2,18.4-18.4c0-10.2-8.2-18.4-18.4-18.4
				c-10.2,0-18.4,8.2-18.4,18.4C761.6,1314.1,769.9,1322.4,780,1322.4z" class="color99c5f2 svgShape" clip-rule="evenodd"/><circle cx="780" cy="1304" r="8.5" fill="#e9b18b" fill-rule="evenodd" class="color8bbae9 svgShape" clip-rule="evenodd"/><path fill="#e9b18b" fill-rule="evenodd" d="M831.7,1381.7h366.2c1.4,0,2.6,1.2,2.6,2.6l0,0c0,1.4-1.2,2.6-2.6,2.6H831.7c-1.4,0-2.6-1.1-2.6-2.6l0,0
			C829.1,1382.8,830.3,1381.7,831.7,1381.7z" class="color8bbae9 svgShape" clip-rule="evenodd"/><path fill="#f2bd99" fill-rule="evenodd" d="M764.3,1381.1c0-8.7,7-15.7,15.7-15.7c8.7,0,15.7,7,15.7,15.7c0,8.7-7,15.7-15.7,15.7
				C771.4,1396.8,764.3,1389.7,764.3,1381.1L764.3,1381.1z M780,1399.5c10.2,0,18.4-8.2,18.4-18.4c0-10.2-8.2-18.4-18.4-18.4
				c-10.2,0-18.4,8.2-18.4,18.4C761.6,1391.2,769.9,1399.5,780,1399.5z" class="color99c5f2 svgShape" clip-rule="evenodd"/><circle cx="780" cy="1381.1" r="8.5" fill="#e9b18b" fill-rule="evenodd" class="color8bbae9 svgShape" clip-rule="evenodd"/><path fill="#f7e1d2" fill-rule="evenodd" d="M789,759.6h366.2c1.4,0,2.6,7,2.6,15.6l0,0c0,8.6-1.2,15.6-2.6,15.6H789c-1.4,0-2.6-7-2.6-15.6l0,0
			C786.4,766.6,787.6,759.6,789,759.6z" class="colord2e5f7 svgShape" clip-rule="evenodd"/><path fill="#fcf4ef" fill-rule="evenodd" d="M1388.9,870.6L1388.9,870.6L1388.9,870.6z M798.9,1480c-4,6.7-8.1,13.4-12.3,20.1
				c117.2,4.8,217.7,11.4,301.3,19.7c83.7,8.4,150.6,18.5,200.7,30.5c16.4-21.9,31.8-45.3,46.3-70.3
				c37.2-64.3,67.9-138.7,92.1-223.2c33.6-117.6,54.5-254.8,62.8-411.5c-18.3-19.9-35.5-27.8-51.6-23.7
				c-16.4,4.1-31.9,20.5-46.6,49.1c-0.4,0.7-1.3,1-2,0.6c-0.3-0.2-0.5-0.4-0.7-0.7c-25.3-53.7-61.9-91.7-109.6-114
				c-47.8-22.3-106.8-28.9-177.1-19.9l-0.1,0c-10.8,0.5-25.9,1.5-45.2,2.9c-18.9,1.4-41.9,3.2-69.1,5.4
				c13.1,122.9,2.8,247.4-30.8,373.3C925.2,1237.6,872.5,1358.1,798.9,1480z" class="coloreff9fc svgShape" clip-rule="evenodd"/><path fill="#e09461" fill-rule="evenodd" d="M1106.1,736.8c-10.8,0.5-25.9,1.5-45.2,2.9c-18.9,1.4-41.9,3.2-69.1,5.4c13.1,122.9,2.8,247.4-30.8,373.3
				c-33.5,125.7-90.3,253-170.3,381.7c117.2,4.8,217.7,11.4,301.3,19.7c83.7,8.4,150.6,18.5,200.7,30.5
				c58.7-78.4,104.8-176.2,138.3-293.5c33.6-117.6,54.5-254.8,62.8-411.5c-18.3-19.9-35.5-27.8-51.6-23.7
				c-16.4,4.1-31.9,20.5-46.6,49.1c-0.4,0.7-1.3,1-2,0.6c-0.3-0.2-0.5-0.4-0.7-0.7l0,0c-25.3-53.7-61.9-91.7-109.6-114
				c-47.8-22.3-106.8-28.9-177.1-19.9L1106.1,736.8L1106.1,736.8L1106.1,736.8z M1060.7,736.7c19.2-1.4,34.3-2.3,45.3-2.9
				c70.8-9.1,130.4-2.4,178.7,20.1c47.6,22.2,84.1,59.8,109.7,112.7c14.7-27.8,30.4-43.8,47.1-48c17.4-4.4,35.7,4,55,25.1l0,0
				c0.3,0.3,0.4,0.7,0.4,1.1c-8.3,157.2-29.2,294.8-62.9,412.8c-33.7,118-80.2,216.5-139.4,295.3c-0.3,0.5-0.9,0.7-1.5,0.6
				c-50-12-117.1-22.2-201.2-30.7c-84.1-8.4-185.3-15-303.6-19.8c-0.3,0-0.6-0.1-0.8-0.2c-0.7-0.4-0.9-1.4-0.5-2.1
				c80.6-129.2,137.7-256.9,171.3-383.1c33.6-126.1,43.8-250.6,30.5-373.7l0-0.1c-0.1-0.8,0.5-1.5,1.4-1.6
				C1017.8,739.9,1041.3,738.1,1060.7,736.7z" class="color61a0e0 svgShape" clip-rule="evenodd"/><path fill="#faeadf" fill-rule="evenodd" d="M1258.4,745.2c69.9,61.4,106.8,119.8,110.6,175.3c7.8-24.9,13.9-46.4,18.2-64.5
			C1357.5,800.6,1314.6,763.7,1258.4,745.2z" class="colordfedfa svgShape" clip-rule="evenodd"/><path fill="#faeadf" fill-rule="evenodd" d="M1495.4,844.7c-64.1-94.5-168.9-125.7-333-113.4c35.5-0.2,67.5,4.4,96.1,13.8
			c56.2,18.5,99.1,55.4,128.9,110.8c2.4,4.5,4.8,9.2,7,13.9C1424,811.9,1457.7,803.5,1495.4,844.7z" class="colordfedfa svgShape" clip-rule="evenodd"/><path fill="#e09461" fill-rule="evenodd" d="M1484.3,832c-30.5-39.5-69.4-66.4-118.4-82.6c-47.5-15.7-104.4-21.2-172.4-18.4c6.7,0.5,13.2,1.3,19.6,2.2
			c16.1,2.3,31.4,5.8,45.7,10.6c28.3,9.3,53.2,23.2,74.8,41.8c21.6,18.6,39.9,41.8,54.9,69.7c1.2,2.3,2.4,4.6,3.6,6.9
			c0.7,1.4,1.5,2.9,2.2,4.4c14.7-27.8,30.4-43.8,47.1-48C1455.2,815.2,1469.5,819.7,1484.3,832L1484.3,832z M1366.8,746.6
			c55,18.2,97.5,49.7,129.7,97.2c0.5,0.6,0.4,1.5-0.2,2c-0.6,0.6-1.5,0.5-2.1-0.1c-18.4-20.2-35.8-28.3-52-24.2
			c-16.4,4.1-31.9,20.5-46.6,49.1c-0.1,0.3-0.4,0.6-0.7,0.7c-0.7,0.4-1.6,0-2-0.7c-1.1-2.4-2.3-4.7-3.4-7c-1.2-2.3-2.3-4.6-3.6-6.9
			c-14.8-27.6-32.9-50.5-54.2-68.9c-21.3-18.3-45.9-32.1-73.8-41.3c-14.2-4.7-29.3-8.2-45.2-10.5c-15.9-2.3-32.7-3.4-50.3-3.3h0
			c-0.8,0.1-1.5-0.6-1.6-1.4c-0.1-0.8,0.6-1.5,1.4-1.6C1244.5,723.7,1311.9,728.5,1366.8,746.6z" class="color61a0e0 svgShape" clip-rule="evenodd"/><path fill="#e9b18b" fill-rule="evenodd" d="M1062.1,869.7c-1,0-1.9-0.8-1.9-1.8c0-1,0.8-1.9,1.8-1.9l237.4-8.7c1,0,1.9,0.8,1.9,1.8c0,1-0.8,1.9-1.8,1.9
				L1062.1,869.7z" class="color8bbae9 svgShape" clip-rule="evenodd"/><path fill="#e9b18b" fill-rule="evenodd" d="M1143.9,952.6c-1,0-1.9-0.8-1.9-1.8c0-1,0.8-1.9,1.8-1.9l166.7-3c1,0,1.9,0.8,1.9,1.8c0,1-0.8,1.9-1.8,1.9
				L1143.9,952.6z" class="color8bbae9 svgShape" clip-rule="evenodd"/><path fill="#e9b18b" fill-rule="evenodd" d="M1057.8,987.2c-1,0-1.9-0.8-1.9-1.8c0-1,0.8-1.9,1.8-1.9l350.6-10c1,0,1.9,0.8,1.9,1.8c0,1-0.8,1.9-1.8,1.9
				L1057.8,987.2z" class="color8bbae9 svgShape" clip-rule="evenodd"/><path fill="#e9b18b" fill-rule="evenodd" d="M1053.2,1021.8c-1,0-1.9-0.8-1.9-1.8c0-1,0.8-1.9,1.8-1.9l139-3c1,0,1.9,0.8,1.9,1.8c0,1-0.8,1.9-1.8,1.9
				L1053.2,1021.8z" class="color8bbae9 svgShape" clip-rule="evenodd"/><path fill="#e9b18b" fill-rule="evenodd" d="M1048.8,1039.4c-1,0-1.9-0.8-1.9-1.8c0-1,0.8-1.9,1.8-1.9l73.9-1.6c1,0,1.9,0.8,1.9,1.8c0,1-0.8,1.9-1.8,1.9
				L1048.8,1039.4z" class="color8bbae9 svgShape" clip-rule="evenodd"/><path fill="#e9b18b" fill-rule="evenodd" d="M1042.6,1075.9c-1,0-1.9-0.8-1.9-1.8c0-1,0.8-1.9,1.8-1.9l149.7-2c1,0,1.9,0.8,1.9,1.8c0,1-0.8,1.9-1.8,1.9
				L1042.6,1075.9z" class="color8bbae9 svgShape" clip-rule="evenodd"/><path fill="#e9b18b" fill-rule="evenodd" d="M1219.4,1075.9c-1,0-1.9-0.8-1.9-1.8c0-1,0.8-1.9,1.8-1.9l143.1-2c1,0,1.9,0.8,1.9,1.8c0,1-0.8,1.9-1.8,1.9
				L1219.4,1075.9z" class="color8bbae9 svgShape" clip-rule="evenodd"/><path fill="#e9b18b" fill-rule="evenodd" d="M1035.9,1102.6c-1,0-1.9-0.8-1.9-1.8c0-1,0.8-1.9,1.9-1.9l255.5-2c1,0,1.9,0.8,1.9,1.8c0,1-0.8,1.9-1.9,1.9
				L1035.9,1102.6z" class="color8bbae9 svgShape" clip-rule="evenodd"/><path fill="#e9b18b" fill-rule="evenodd" d="M1029,1129.3c-1,0-1.9-0.8-1.9-1.8c0-1,0.8-1.9,1.8-1.9l143.1-2c1,0,1.9,0.8,1.9,1.8c0,1-0.8,1.9-1.8,1.9
				L1029,1129.3z" class="color8bbae9 svgShape" clip-rule="evenodd"/><path fill="#e9b18b" fill-rule="evenodd" d="M1021.9,1156.1c-1,0-1.9-0.8-1.9-1.8c0-1,0.8-1.9,1.8-1.9l170.3-2c1,0,1.9,0.8,1.9,1.8c0,1-0.8,1.9-1.8,1.9
				L1021.9,1156.1z" class="color8bbae9 svgShape" clip-rule="evenodd"/><path fill="#e9b18b" fill-rule="evenodd" d="M1014.6,1182.8c-1,0-1.9-0.8-1.9-1.9c0-1,0.8-1.9,1.9-1.9l360.6-2c1,0,1.9,0.8,1.9,1.8c0,1-0.8,1.9-1.8,1.9
				L1014.6,1182.8z" class="color8bbae9 svgShape" clip-rule="evenodd"/><path fill="#e9b18b" fill-rule="evenodd" d="M1309.5,1102.6c-1,0-1.9-0.8-1.9-1.8c0-1,0.8-1.9,1.8-1.9l61-2c1,0,1.9,0.8,1.9,1.8c0,1-0.8,1.9-1.8,1.9
				L1309.5,1102.6z" class="color8bbae9 svgShape" clip-rule="evenodd"/><path fill="#e9b18b" fill-rule="evenodd" d="M1199.7,1126.7c-1,0-1.9-0.8-1.9-1.8c0-1,0.8-1.9,1.8-1.9l172.2-2c1,0,1.9,0.8,1.9,1.8c0,1-0.8,1.9-1.8,1.9
				L1199.7,1126.7z" class="color8bbae9 svgShape" clip-rule="evenodd"/><path fill="#e9b18b" fill-rule="evenodd" d="M1218.8,1153.9c-1,0-1.9-0.8-1.9-1.8c0-1,0.8-1.9,1.8-1.9l143.1-2c1,0,1.9,0.8,1.9,1.8c0,1-0.8,1.9-1.8,1.9
				L1218.8,1153.9z" class="color8bbae9 svgShape" clip-rule="evenodd"/><path fill="#e9b18b" fill-rule="evenodd" d="M998.9,1226.8c-1,0-1.9-0.8-1.9-1.8c0-1,0.8-1.9,1.9-1.9l354.9-2c1,0,1.9,0.8,1.9,1.8c0,1-0.8,1.9-1.9,1.9
				L998.9,1226.8z" class="color8bbae9 svgShape" clip-rule="evenodd"/><path fill="#e9b18b" fill-rule="evenodd" d="M979.4,1281.7c-1,0-1.9-0.8-1.9-1.8c0-1,0.8-1.9,1.8-1.9l155-3c1,0,1.9,0.8,1.9,1.8c0,1-0.8,1.9-1.8,1.9
				L979.4,1281.7z" class="color8bbae9 svgShape" clip-rule="evenodd"/><path fill="#e9b18b" fill-rule="evenodd" d="M970.3,1301.4c-1,0-1.9-0.8-1.9-1.8c0-1,0.8-1.9,1.8-1.9l92.4-1.6c1,0,1.9,0.8,1.9,1.8c0,1-0.8,1.9-1.8,1.9
				L970.3,1301.4z" class="color8bbae9 svgShape" clip-rule="evenodd"/><path fill="#4f59cc" fill-rule="evenodd" d="M1274.8,1401.3c-2.9,0.2-5.9,1.6-9.1,3.9c0,1-0.2,2-0.6,3.2c1.7-0.6,3.1-0.7,4.2-0.3
			c3.5,1.3,4.2,6.9-0.5,19.8c-1.1,3-2.3,5.4-3.4,7.4c19.7,2.2,35.2,4.8,35.6,7.2l0,0.1l0,0.1l0.1,1.4h-1.4c-10,0-17.4,0.1-23,0.2
			c-9.6,0.2-14.1,0.3-16-0.6c-2.7-1.3-1.7-3,0.3-6.3c-3.6-0.4-7.3-0.7-11.1-1.1c-0.5,2.5-3.9,3.9-9.4,4.5h0
			c-1.7,0.2-3.7,0.3-5.9,0.3c-5.3,6.9-9.7,11.8-12.7,11.8c-2.4,0-3.7-2.3-3.7-7.8c0-1.7-0.1-3.2-0.1-4.7l-2-0.2
			c-43.3-3.9-114.7-18.8-115.1-19c-9.2-3.5-14.3-6.4-16.4-8.8c-2.4-2.8-1.6-5.1,1.4-6.9c2.4-1.4,6.3-2.4,11.2-3.2
			c17.8-2.7,48.5-1.9,56.1-0.9c3.5,0.4,7.3,0.9,11,1.3c31.1,3.6,50.1,5.9,55.1,28.4c5.8,0.4,11.9,0.9,18,1.5c0.9-1.2,2-2.6,3.2-4
			c-8.5-7.8-8-15.1-3.7-20.7c3.3-4.2,8.9-7.3,14.2-8.7c5.5-1.4,10.8-1,13.2,2c0.3,0.4,0.6,0.8,0.7,1.2c3.2-2.2,6.4-3.5,9.4-3.7
			L1274.8,1401.3L1274.8,1401.3z M1263,1407.4c-2,1.7-4,3.6-6,5.7c1.7-1.3,3.4-2.4,5-3.3C1262.4,1408.9,1262.8,1408.1,1263,1407.4
			L1263,1407.4z M1245.1,1427.4l-0.7,0.9l0.4,0.3l0.2,0.2c6.2-5.4,10.5-9.9,13.4-13.6c-2.7,2.1-5.7,4.7-8.5,7.4
			C1248.3,1424.2,1246.6,1425.8,1245.1,1427.4L1245.1,1427.4z M1242.9,1430.3l-0.7,0.9l0.8-0.7L1242.9,1430.3L1242.9,1430.3z
			 M1242.5,1426.5c6.5-8.5,13.6-17.2,20.6-22.6c-0.1-0.4-0.3-0.8-0.6-1.1c-1.7-2.1-6-2.3-10.5-1.1c-4.8,1.2-9.8,4-12.8,7.8
			C1235.7,1413.9,1235.4,1419.9,1242.5,1426.5L1242.5,1426.5z M1236.9,1438.2l-0.2,0.3c1.3,0,2.5-0.1,3.6-0.2c3.9-0.4,6.3-1.1,7-2.1
			c-2.1-0.2-4.1-0.4-6.2-0.6l-0.2,0.1C1239.2,1437,1237.9,1437.8,1236.9,1438.2L1236.9,1438.2z M1222,1450.3c1.8,0,5.1-3.7,9.4-9.2
			c-3.2-0.1-6.8-0.2-10.6-0.5c0.1,1.4,0.1,3,0.1,4.5C1220.9,1448.8,1221.3,1450.3,1222,1450.3L1222,1450.3z M1233.4,1438.5
			c0.8-1,1.6-2.1,2.5-3.2l0.1-0.2c-5.4-0.5-10.8-0.9-15.9-1.3c0.2,1.3,0.4,2.7,0.5,4.1C1225.3,1438.3,1229.6,1438.5,1233.4,1438.5
			L1233.4,1438.5z M1217.9,1437.7c-0.2-1.4-0.4-2.8-0.6-4.1c-14.7-1.1-27.1-1.8-32.5-1.8c-1.2,0-2,0-2.3,0.1l-1.1,0.2l-0.3-1.1
			l-4.5-14.3l2.5-0.8l4.1,13.2c0.4,0,1,0,1.6,0c5.3,0,17.4,0.7,31.9,1.7c-5.2-20-23.3-22.1-52.6-25.5c-3.3-0.4-6.8-0.8-11-1.3
			c-7.5-0.9-37.8-1.8-55.4,0.9c-4.6,0.7-8.2,1.6-10.3,2.8c-1.4,0.8-1.7,1.8-0.8,2.9c1.8,2.1,6.6,4.8,15.3,8.1
			c0.4,0.1,71.3,14.9,114.4,18.8h0L1217.9,1437.7L1217.9,1437.7z M1246.3,1433.4c-0.3-0.4-0.7-0.8-1.2-1.2l-1.2,1L1246.3,1433.4
			L1246.3,1433.4z M1247.1,1430.4c1.2,1.2,2.1,2.3,2.5,3.2c4.4,0.4,8.8,0.9,13,1.3c1.2-2.1,2.6-4.7,3.8-8c4-11.1,4.1-15.8,2-16.5
			c-1.1-0.4-2.8,0.1-4.8,1.2C1261.1,1416.5,1255.9,1422.7,1247.1,1430.4L1247.1,1430.4z M1264,1437.7l-0.4,0.7
			c-1.2,1.9-1.8,2.9-1.7,3c1.3,0.6,5.7,0.6,14.9,0.4c4.5-0.1,10.2-0.2,17-0.2C1287.9,1440.4,1276.9,1439.1,1264,1437.7z" class="color4f8ecc svgShape" clip-rule="evenodd"/><rect width="391.5" height="108.9" x="584.3" y="768.4" fill="#e09461" fill-rule="evenodd" class="color61a0e0 svgShape" clip-rule="evenodd"/><path fill="#faeadf" fill-rule="evenodd" d="M689.7,785.9c-2.2-1.2-7.7-2.9-16-2.9c-20.6,0-38,13.7-38,40.8c0,23,12.9,38.8,36.2,38.8
		c8,0,14.2-1.5,17.1-2.9l-2.1-12c-3,1.3-8,2.2-12.6,2.2c-14,0-23-9.4-23-26.9c0-18.8,10.3-27.5,23.1-27.5c5.3,0,9.4,1.2,12.4,2.5
		L689.7,785.9L689.7,785.9z M714.8,849v-65h-14.9v77.6h42.7V849H714.8L714.8,849z M768.8,784.1l-22,77.6H762l5.3-20.5h20.8l5.5,20.5
		h15.6l-21.7-77.6H768.8L768.8,784.1z M774.1,812.1c1.1-4.5,2.4-10.9,3.4-15.7h0.3c1,4.7,2.3,11,3.5,15.8l4.6,17.6h-16.5
		L774.1,812.1L774.1,812.1z M834.3,861.7v-77.6h-14.9v77.6H834.3L834.3,861.7z M901.7,784.1l-8.8,29.1c-2.6,9.3-4.9,18.7-6.8,27.3
		h-0.3c-1.7-8.9-3.9-18-6.5-27.3l-8.4-29.1h-18.5l-5.2,77.6h13.6l1.5-29.9c0.5-9.6,1-21.1,1.2-30.9h0.3c1.8,9.5,4.2,20,6.8,28.7
		l8.6,30.9h11.3l9.5-31.4c2.6-8.7,5.4-19,7.7-28.2h0.3c-0.1,7.9,0.4,20.4,0.8,30.6l1.4,30.2h14.2l-4.4-77.6H901.7z" class="colordfedfa svgShape" clip-rule="evenodd"/><g class="color000000 svgShape"><path fill="#283091" fill-rule="evenodd" d="M1486.1,975.3c-1.2,1.7,3.3,5.2,1.4,5.8c-0.5,13.7-33.2,31.6-39.2,25.6c-8.3-8.4,2.6-53.7-12.9-58.5
			c-31.4-9.8-54.2,40.5-67.8,34.9c-27.7-11.4-51.8-70.6-10.7-103.1c20-24.5,0.1-104.4,44.8-119.2
			C1461.5,734.9,1511.4,942,1486.1,975.3z" class="color284191 svgShape" clip-rule="evenodd"/><path fill="#f5a067" fill-rule="evenodd" d="M1373.2,1105.7c-4.5,3.9-9.4,5.5-15.1,4.3C1363.5,1114.1,1370.9,1111,1373.2,1105.7z" class="colorf58b67 svgShape" clip-rule="evenodd"/><path fill="#ffb27d" fill-rule="evenodd" d="M1353,1494.3c0.9-6.1-1-16.5-5.8-32.8c9.4,0,17.3-4.1,26.9-4c2.6,15.3,6.7,40.5,6.7,40.5l0.4,19.9l-66.8,0.5
			c0,0,0.6,0.3,20.3-12.2C1336.1,1505.3,1352.2,1500.1,1353,1494.3z" class="colorffb27d svgShape" clip-rule="evenodd"/><path fill="#283091" fill-rule="evenodd" d="M1381.5,1523h-68.9c-2.5-0.2-3.2-2.3-2.3-3.6c1.8-2.6,15.3-9,24.3-13.2c15.9,1.7,43.7-4.9,46.2-8.5
			C1385.2,1509.9,1383,1522.7,1381.5,1523z" class="color284191 svgShape" clip-rule="evenodd"/><path fill="#ffb27d" fill-rule="evenodd" d="M1436.2,1494.3c0.9-6.1,2.3-13.6,0.2-33.8c9.4,0,18.3-1.7,27.9-1.6c0,15.8-0.3,39.2-0.3,39.2l0.4,19.9
			l-66.8,0.5c0,0,0.6,0.3,20.2-12.2C1419.4,1505.3,1435.4,1500.1,1436.2,1494.3z" class="colorffb27d svgShape" clip-rule="evenodd"/><path fill="#283091" fill-rule="evenodd" d="M1464.8,1523h-69c-2.5-0.2-3.2-2.3-2.3-3.6c1.8-2.6,15.3-9,24.3-13.2c15.9,1.7,43.7-4.9,46.2-8.5
			C1468.4,1509.9,1466.2,1522.7,1464.8,1523z" class="color284191 svgShape" clip-rule="evenodd"/><path fill="#ffb27d" fill-rule="evenodd" d="M1387.7,917.5l-25.1-26.5c0,0-26.9,14.8-58.2,28.9c-8.6-15-22.7-64.4-23.4-66.7c-0.8-2.4,16.5-32,12.6-32.7
			c-3.9-0.7-8.9,15.8-12.9,14.1c-4.1-1.7-14.5-40.1-17-38c-4.6,3.9,5.5,23.9,3.1,25.4c-2.4,1.5-8.6-22.1-13.2-21.2
			c-4.7,1,7.9,21.5,6.5,23.5c-1.4,2-14.5-17.2-17.2-12.8c-1.5,2.4,12.1,16.7,9.3,18.3c-2.8,1.6-15-7.4-16.5-4.5
			c-1.5,2.9,11.4,6,15,13.4c3.6,7.4,10.1,10.3,12.2,24.2c2.1,14,8.1,88.7,23.3,94.7C1299.4,962.9,1387.7,917.5,1387.7,917.5z" class="colorffb27d svgShape" clip-rule="evenodd"/><path fill="#3b45b3" fill-rule="evenodd" d="M1371.5,1060.5l20.4,11.4l41.4,63.3l-74.1,174.3c0,0,8.3,26.2,11.1,39.3c2.8,13.7,9.8,131.3,9.8,131.3
			l-31.6,0.5c0,0-30-125.2-35.1-165.9c-6.2-49.4,31.4-166.9,31.4-166.9c7-24,22.1-73.3,22.1-73.3S1370.6,1062.6,1371.5,1060.5z" class="color3b5bb3 svgShape" clip-rule="evenodd"/><path fill="#454fc6" fill-rule="evenodd" d="M1442.4,1036.7c0,0-2.1,14.9,6.3,31.9c5.1,10.4,14,18.5,20.4,31.2c12,24,18.6,58.1,14,80
			c0,0-24.9,94.9-23.9,129.6c0.4,12.8,4.7,35.9,7.6,51.4c2.5,13.8,3.3,117.7,3.3,117.7l-35.3-1.1l-27-167.6l-11.4-149l-24.9-100.4
			L1442.4,1036.7z" class="color4567c6 svgShape" clip-rule="evenodd"/><path fill="#e9b18b" fill-rule="evenodd" d="M1360.2,934.2c-11.2,5.2-31.6,13-31.6,13l-11.6-36.6c65.5-37.3,60.3-31.2,109.5-30.5
			c39.3,0.6,55.7-6.9,89.5,84.3c0,0-25.7,11.6-35,15.3c-4-11.3-11.1-33.8-15.3-21c-6.3,19.4-10.9,38.9-14,59.1
			c-2,11.9-6.2,27.2-4,39.4c0,0-26.7,5.5-47.2,6.4h-0.2c-9.9-0.3-20-1.1-29-3.1c0,0-4-84.7-6.1-88.2c-2.4-3.9-12.4-16.5-3.9-35.5
			C1363,933.5,1362.6,933.1,1360.2,934.2z" class="color8bbae9 svgShape" clip-rule="evenodd"/><path fill="#ffb27d" fill-rule="evenodd" d="M1421.7,843.9c0,0,3,24.2,4.8,32.6c1.8,8.8,4.6,36.5-13.6,40.9c-18.2,4.5-12.6-30.1-12.9-39
			c-0.3-8.9-5.5-40.1-5.5-40.1L1421.7,843.9z" class="colorffb27d svgShape" clip-rule="evenodd"/><path fill="#f39b60" fill-rule="evenodd" d="M1424.3,862.6c-0.2,0.1-0.4,0.2-0.5,0.3c-10.1,5.8-18.8,4.9-25.4,0.4c-1.2-7.7-2.2-14-2.2-14l27.2,5.6
			C1423.3,854.9,1423.7,858.1,1424.3,862.6z" class="colorf37960 svgShape" clip-rule="evenodd"/><path fill="#ffb27d" fill-rule="evenodd" d="M1413.2,792.4c0,0,10.9,1.8,18.2,11.7c7.3,9.8,13.7,39.7-7.3,55.2c-21.1,15.4-39.4-3.5-40.8-22.9
			C1381.8,816.9,1384.3,790.7,1413.2,792.4z" class="colorffb27d svgShape" clip-rule="evenodd"/><path fill="#283091" fill-rule="evenodd" d="M1441,836.3c13.4-15.7,14.1-7.5,16.1-29.8c0.5-61.3-71.5-61.8-68-29c-6,7.1-1,10.4,4.2,14.9
			C1436.9,829.9,1437.7,784.8,1441,836.3z" class="color284191 svgShape" clip-rule="evenodd"/><path fill="#283091" fill-rule="evenodd" d="M1390.7,776c4.3,0.4,6.8-0.9,7.3-3.9c-3.1-5.5-7.4-8.8-12.9-10C1387.6,764.2,1389.4,768.8,1390.7,776z" class="color284191 svgShape" clip-rule="evenodd"/><path fill="#283091" fill-rule="evenodd" d="M1389.7,776.3c-2.8,0.6-3.9-0.5-3.1-3.1c3.9-5,7.8-8.2,11.7-9.5C1396.1,765.6,1393.2,769.8,1389.7,776.3z" class="color284191 svgShape" clip-rule="evenodd"/><path fill="#283091" fill-rule="evenodd" d="M1381.6,832.9c-2.1-10.5,0-21.2,2.1-31.7c3.2-15.7,14.4-8.8,9.3-1.1C1383.2,815.2,1385.9,810.2,1381.6,832.9
			z" class="color284191 svgShape" clip-rule="evenodd"/><path fill="#283091" fill-rule="evenodd" d="M1397.5,786.2c3.9-3.1,4.9-6.2,3-9.1c-7-2.1-13.2-1.5-18.8,2C1385.4,778.8,1390.6,781.2,1397.5,786.2z" class="color284191 svgShape" clip-rule="evenodd"/><path fill="#283091" fill-rule="evenodd" d="M1397.7,791.5c-4.4,0.5-6.6,2.5-6.4,6c4.4,5.6,9.6,8.4,15.4,8.6C1403.8,804.3,1400.8,799.5,1397.7,791.5z" class="color284191 svgShape" clip-rule="evenodd"/><path fill="#ffb27d" fill-rule="evenodd" d="M1380.3,815.3c-0.2,4.2,1.6,7.7,4,7.8c2.4,0.1,4.6-3.2,4.8-7.4c0.2-4.2-1.6-7.7-4-7.8
			C1382.6,807.8,1380.5,811.1,1380.3,815.3z" class="colorffb27d svgShape" clip-rule="evenodd"/><path fill="#ffb27d" fill-rule="evenodd" d="M1435.4,822.4c-0.3,4.3,1.9,7.9,4.7,8.1c2.9,0.2,5.4-3.1,5.7-7.4c0.3-4.3-1.8-7.9-4.7-8.1
			C1438.2,814.8,1435.7,818.1,1435.4,822.4z" class="colorffb27d svgShape" clip-rule="evenodd"/><path fill="#e09461" fill-rule="evenodd" d="M1397.4,879.2c0,20.9,1.3,30.6,5.8,36.2c1,1.2,2,2.1,3.1,2.8c-0.1,0.3-0.1,0.7-0.1,1.1c0,1.3,0.6,2.5,1.6,3.3
			c-0.3,0.5-0.4,1-0.4,1.5c0,1.2,0.7,2.2,1.8,2.7c-0.2,0.3-0.3,0.6-0.3,0.9c0,1,0.9,1.7,1.9,1.7c1.1,0,1.9-0.8,1.9-1.7
			c0-0.3-0.1-0.7-0.3-0.9c1.1-0.5,1.8-1.6,1.8-2.7c0-0.3-0.1-0.6-0.2-0.9c1.5-0.8,2.4-2.3,2.4-3.9c0-0.5-0.1-1-0.3-1.5
			c1-0.6,2.1-1.4,3-2.4c5.9-5.9,11.4-18,10.7-35.3l-2.9,0c1.3,16.4-4.1,28.2-9.5,33.6c-0.9,0.9-1.8,1.6-2.7,2.2
			c-0.9-0.7-2.1-1.2-3.5-1.2c-1.5,0-2.8,0.6-3.8,1.5c-0.9-0.5-1.7-1.2-2.5-2.2c-4.1-5.1-5.1-15.8-5.1-34.6L1397.4,879.2z" class="color61a0e0 svgShape" clip-rule="evenodd"/><path fill="#e09461" fill-rule="evenodd" d="M1320.4,908.6c3.2,10.3,5.8,18.3,7.8,24.6c2,6.2,3.4,10.5,4.1,12.6l1.7-0.7c-0.7-2.1-2.1-6.2-4.1-12.4
			c-2-6.2-4.6-14.6-7.9-24.9L1320.4,908.6z" class="color61a0e0 svgShape" clip-rule="evenodd"/><path fill="#e09461" fill-rule="evenodd" d="M1514.4,959.9c-9.1,3.2-16.6,6-22.6,8.4c-5.9,2.3-10.1,4.1-12.8,5.4l0.6,1.8c2.6-1.3,7-3.2,12.8-5.5
			c5.8-2.3,13.3-5,22.6-8.3L1514.4,959.9z" class="color61a0e0 svgShape" clip-rule="evenodd"/><path fill="#e09461" fill-rule="evenodd" d="M1513.3,957c-9.1,3.2-16.6,6-22.6,8.4c-5.9,2.3-10,4-12.7,5.4l0.6,1.8c2.6-1.3,6.9-3.1,12.7-5.4
			c5.8-2.3,13.4-5,22.6-8.3L1513.3,957z" class="color61a0e0 svgShape" clip-rule="evenodd"/><path fill="#e09461" fill-rule="evenodd" d="M1323.4,906.9c3.2,10.3,5.7,18.2,7.7,24.4c2,6.2,3.6,11,4.3,13.1l1.8-0.7c-0.7-2.1-2.3-6.8-4.3-13
			c-2-6.2-4.6-14.5-7.8-24.8L1323.4,906.9z" class="color61a0e0 svgShape" clip-rule="evenodd"/><rect width="67.7" height="711.1" x="1375.8" y="742" fill="#e09461" fill-rule="evenodd" class="color61a0e0 svgShape" clip-rule="evenodd" transform="rotate(-26.078 1409.484 1097.436)"/><rect width="29.1" height="711.1" x="1395" y="742" fill="#fad4bb" fill-rule="evenodd" class="colorbbdbfa svgShape" clip-rule="evenodd" transform="rotate(-26.078 1409.468 1097.43)"/><polygon fill="#fad4bb" fill-rule="evenodd" points="1535.5 1431.7 1611.7 1510.5 1596.3 1402" class="colorbbdbfa svgShape" clip-rule="evenodd"/><path fill="#e09461" fill-rule="evenodd" d="M1283.7,763.3l-24.5-50.1c-6.1-12.6-21.4-17.8-34-11.7l-15.1,7.4c-12.6,6.1-17.8,21.4-11.7,34l24.5,50.1
				L1283.7,763.3z" class="color61a0e0 svgShape" clip-rule="evenodd"/><path fill="#e09461" fill-rule="evenodd" d="M1605.8,1469.3l5.8,41.2l-28.9-29.9c-1.7-9.7-0.2-17.4,4.6-19.8C1592.3,1458.5,1599.3,1462,1605.8,1469.3z" class="color61a0e0 svgShape" clip-rule="evenodd"/><path fill="#ffb27d" fill-rule="evenodd" d="M1409.4,1081.1c-0.5,0.1-2.5-0.2-4.3-0.2c-2.4,0.1-4.4,0.4-4.4,0.4s-0.9-0.8-2.7-1.6
			c-0.7-0.3-1.9-0.5-2.8-0.8c-0.8-0.4-1.6-1.1-2.4-1.5c-2.1-0.9-4-1.1-4.6,0c-0.5,0.9,11.1,8,11.1,8c10.8,0.1,22,5.6,46.9-10.7
			c14.2-6.2,83.3-40.3,84.6-47.8c0.8-4.2-9.8-36.5-18.5-61c-6.7,3-20.9,9.3-28.8,12.6c7.3,15.5,15.9,35.9,15,38.4
			c-0.2,0.7-1.1,1.8-47.8,32.4c-1.2,0.8-2.4,1.6-3.6,2.4c-3.3,2.1-6.8,4.4-10.5,6.9l-13.3-1.4c0,0-21.1,1.5-21.7,3.9
			c-0.3,1.1,1.5,1.6,3.6,2h0.1c0.3,0,0.6,0.1,1,0.1h0c2.3,0.3,4.8,0.3,5.4,0.5c0.7,0.2,2,0.8,3.2,1.5c-13.2,5.4-12.1,3.5-16.5,3.2
			c-1.1-0.1-2.3,0.2-3.3,0.2c-1.8-0.2-3.2-1.2-4.5-1.3c-2-0.1-3.6,0.8-4,1.2c-0.5,0.5,0.4,1.1,2.1,1.9c10.2,4.4,18.6,2.7,21.3,3.4
			c1.8,0.4-1.5,1.1-6.7,0.6c-1.3-0.1-3,0.3-4.7-0.1c-1.1-0.3-2.2-1-3.3-1.3c-1-0.3-2.1-0.2-3-0.4c-1.1-0.2-2.7-1.1-3.6-1.2
			c-3.4-0.4-5,0.2-5.4,0.5c-0.8,0.7,14.5,6.6,14.5,6.6s10.6,1.5,12.9,1.5C1410.7,1080.1,1412.2,1080.7,1409.4,1081.1z" class="colorffb27d svgShape" clip-rule="evenodd"/></g><g class="color000000 svgShape"><path fill="#283091" fill-rule="evenodd" d="M535.2,884.3c-31.4,11.4-51.5,12.5-60.4,3.3c-9-2.1-14.9-10.1-17.7-24c-9.3-21.2-1.4-55.1,11.8-38.3
			c10.9-27.8,54.5-11.7,79.1-27.1c14.9,9.8,9.3,33.9-1.5,42C546.9,867.9,545.4,882.7,535.2,884.3z" class="color284191 svgShape" clip-rule="evenodd"/><path fill="#283091" fill-rule="evenodd" d="M461.7,828.3c3.4-2.6,4.5-5.5,3.3-8.6c-5.2-2.9-10.2-3-14.9-0.3C453,819.6,456.9,822.5,461.7,828.3z" class="color284191 svgShape" clip-rule="evenodd"/><path fill="#283091" fill-rule="evenodd" d="M468.2,821c-2.4,2.7-4.6,3.3-6.6,1.8c-1.2-5.1-0.5-9.6,2.2-13.4C463.4,811.9,464.9,815.8,468.2,821z" class="color284191 svgShape" clip-rule="evenodd"/><path fill="#283091" fill-rule="evenodd" d="M484.8,832.6c-5.9-2.3-10.4-1.6-13.4,2.3c0.2,8.9,4.8,26.7,11.9,30.6C484.5,864.7,484.2,845.9,484.8,832.6z" class="color284191 svgShape" clip-rule="evenodd"/><path fill="#283091" fill-rule="evenodd" d="M487,824c-10,4.9-13.3,9.2-9.9,13.1c15.1,2.2,29.5,0.6,43.4-4.9C512.2,833,501,830.3,487,824z" class="color284191 svgShape" clip-rule="evenodd"/><path fill="#283091" fill-rule="evenodd" d="M545.8,839c-11.3-11.4-32.7-12.8-62.1-2.1c-18.6-4.6-22.8-13.2-14.9-27.2c11.1-19.8,35.2-4.1,64.7-22.8
			C532.2,801.4,576.1,813.8,545.8,839z" class="color284191 svgShape" clip-rule="evenodd"/><path fill="#ffb27d" fill-rule="evenodd" d="M475,848.7c7.8-1.7,7.1,14.4,6.5,22.3C480.3,886.7,462.7,851.3,475,848.7z" class="colorffb27d svgShape" clip-rule="evenodd"/><path fill="#ffb27d" fill-rule="evenodd" d="M465.8,913.8c4.3,0.3,11.1-0.5,12.4-2.1c4.6-5.8,7.8-11.9,9-15.8c-0.9-2.6-1.8-5.8-2.8-9.7
			c-16.7-11.3-18.9-19.7-6.8-25.1c2.4,1.4,5.5,5.6,9.1,12.6c2.9-0.1,5.1-1.6,6.6-4.4c-3.4-11.9-5.7-21.6-6.7-29
			c8.2-12.2,27.4-14,52.9-10.7c1.2,6.8,2.1,13.9,2.9,21.5c3.2,2.9,12.4,51.7-18.9,53.7c-0.2,3.6,0.1,7.9,0.4,8.4
			c0.4,0.8,1.7,1.5,3.4,2.2l0,0C527.6,932.1,507.2,931.5,465.8,913.8z" class="colorffb27d svgShape" clip-rule="evenodd"/><path fill="#283091" fill-rule="evenodd" d="M539.3,829.7c-25.4-3.3-44.7-1.6-52.9,10.7c1,7.4,3.3,17.1,6.7,29c-1.5,2.8-3.7,4.3-6.6,4.4
			c-3.6-7.1-6.7-11.3-9.1-12.6c-12.1,5.4-9.8,13.8,6.8,25.1c1,3.9,1.9,7.1,2.8,9.7c-15-3.4-27.5-16.8-29.3-22.6
			c-17.5-34.5,2-49,12.5-54.4c4.6-34.1,54.2-4,79-20.4C559.2,812.2,547,829.4,539.3,829.7z" class="color284191 svgShape" clip-rule="evenodd"/><path fill="#f09b61" fill-rule="evenodd" d="M506.6,901.3c4.1,2,9.6,3.2,16.7,3.5c-0.1,2.4,0,5.2,0.1,6.9C516.3,910.3,510.7,906.9,506.6,901.3z" class="colorf08261 svgShape" clip-rule="evenodd"/><path fill="#283091" fill-rule="evenodd" d="M535.7,821.2c3.8,3,5.1,6.2,3.7,9.7c-5.9,3.3-11.5,3.4-16.8,0.3C525.8,831.1,530.2,827.7,535.7,821.2z" class="color284191 svgShape" clip-rule="evenodd"/><path fill="#ffb27d" fill-rule="evenodd" d="M426.4,1470.8l-5.6,18.1c-1,2.2-3.9,7.6-4.4,9.7c-2,8,37,2.1,29.9-3.4c-0.6-0.5-4.4-5.9-4-8.7
			c0.7-4.3,2.5-10.8,2.5-10.8L426.4,1470.8z" class="colorffb27d svgShape" clip-rule="evenodd"/><path fill="#283091" fill-rule="evenodd" d="M446.2,1495c0,0-8.9,0.4-13.3-0.1c-4.4-0.5-8.7-7-12.1-6.4c-3.7,0.7-8.7,17.2-8.7,17.2
			c27.2,14,47.7,17.5,59.6,17.1C477.1,1522.8,461.7,1505,446.2,1495z" class="color284191 svgShape" clip-rule="evenodd"/><path fill="#ffb27d" fill-rule="evenodd" d="M507.3,1479.4l-0.7,18.9c-0.3,2.4-1.8,8.3-1.7,10.5c0.2,8.2,36.2-7.7,28-11.1c-0.7-0.3-5.8-4.5-6.2-7.3
			c-0.5-4.3-0.4-11.1-0.4-11.1L507.3,1479.4z" class="colorffb27d svgShape" clip-rule="evenodd"/><path fill="#283091" fill-rule="evenodd" d="M532.8,1497.6c0,0-8.5,2.7-12.8,3.4c-4.4,0.7-10.2-4.4-13.3-3c-3.4,1.7-3.9,18.9-3.9,18.9s50.7,4.4,62,0.8
			C569.9,1516.2,550.4,1503.1,532.8,1497.6z" class="color284191 svgShape" clip-rule="evenodd"/><path fill="#ffb27d" fill-rule="evenodd" d="M675,931.6l1-1.8c16.3,5.6,26.9,12.5,23.1,19.1c-2.7,8.4-11.5,11.7-19.4,19.7c-3.6-4.3-7.2-7.2-10.8-8.6
			c-2.3-9.2-2.2-16.5,0.2-22l5.3-5.4L675,931.6z" class="colorffb27d svgShape" clip-rule="evenodd"/><path fill="#e9b18b" fill-rule="evenodd" d="M680.3,969.3c-11.7,50.1-32.3,89-61.7,116.6c-10.6-3.2-20-10.5-28.2-21.7c0.4,36.2-0.5,72.3-2.7,108.2
			c-21.5,10.2-50,9.5-85.5-2l-14.4-17.7c-3.7-0.7-12.1,3.4-16.1,9.6c-33.7-25.7-56.5-53.4-69.9-80.9c3.6-59.1,11.6-105.7,24.1-139.8
			c6.3-9.7,21-19.1,44.3-28.5c38.4,16.5,57.4,17,57,1.5c11.3,3.7,26.3,10.3,45,19.7c15.6,11.8,28.9,43.9,39.8,96.3
			c17.8-22.3,36.3-46,55.5-71.1C671.6,960.7,675.9,964,680.3,969.3L680.3,969.3z M480,1136.7c11.2-36.8,5-82.2-18.5-136.1
			c-5.9,26.6-12.3,52.8-19.2,78.6C450.3,1083,462.9,1102.2,480,1136.7z" class="color8bbae9 svgShape" clip-rule="evenodd"/><path fill="#454fc6" fill-rule="evenodd" d="M475.9,1184.6c5.5-0.4,14.2-5.2,26.4-14.2c35.5,11.5,64,12.1,85.5,2c3.8,60.4-11,123.8-29.9,194.4
			c-18.5,31-17.7,52.8-27.5,124.3c-5.5,3.9-14.5,3.3-27.1-1.7c-4-61-1.2-101.3,14.6-124.1c-2.5-20.4,4-70.7,4.3-102.3
			c-11.5,25.7-19.4,60.3-34.4,95.3c-18.3,42.6-31,88.2-40.6,129.9c-10.2,2-19.7,0.8-28.7-3.5c10.2-68.4,21.6-115.5,34-141.2
			c-0.5-67.3,5.9-127.7,19.2-181.2C474.1,1168.6,475.5,1176.1,475.9,1184.6z" class="color4567c6 svgShape" clip-rule="evenodd"/><path fill="#ffb27d" fill-rule="evenodd" d="M502.2,1170.5c-12.1,9-20.9,13.8-26.4,14.2c-0.3-8.6-1.7-16-4.2-22.3c4-6.2,12.4-10.3,16.1-9.6L502.2,1170.5
			z" class="colorffb27d svgShape" clip-rule="evenodd"/><path fill="#e09461" fill-rule="evenodd" d="M590.4,1064.2c-1.2-35.2-4-64-8.5-86.6c11.4,47.8,22.4,79.5,33.1,95.2c6.7-0.2,15.3-4.2,25.6-12
			c-6.7,9.2-14.1,17.6-22.1,25.1C608,1082.7,598.6,1075.5,590.4,1064.2z" class="color61a0e0 svgShape" clip-rule="evenodd"/><path fill="#e09461" fill-rule="evenodd" d="M487.8,1152.7c-2.1-5.1-4.7-10.5-7.8-16c11.2-36.8,5-82.2-18.5-136.1c34.2,48.7,43.9,100.5,29.1,155.6
			L487.8,1152.7z" class="color61a0e0 svgShape" clip-rule="evenodd"/><path fill="#3b45b3" fill-rule="evenodd" d="M475.5,1193.2c0.4-3.1,0.5-6,0.4-8.6c5.5-0.4,14.2-5.2,26.4-14.2c2.9,0.9,5.7,1.8,8.5,2.6
			C502.2,1181.9,490.4,1188.6,475.5,1193.2z" class="color3b5bb3 svgShape" clip-rule="evenodd"/><path fill="#fcab74" fill-rule="evenodd" d="M818.3,901.4c-7.8-4.7-27.7,13.9-44.3,41.7c-16.7,27.7-23.8,54-16,58.7c7.8,4.7,27.7-13.9,44.3-41.7
			C819,932.4,826.1,906.1,818.3,901.4z" class="colorfc9774 svgShape" clip-rule="evenodd"/><path fill="#fcab74" fill-rule="evenodd" d="M705,876.6l-16.3-9.8c-3.7-2.2-11.6,4.2-17.7,14.4c-6.1,10.2-8,20.2-4.3,22.4l16.3,9.8
			c-3.7-2.2-1.8-12.3,4.3-22.4C693.4,880.8,701.3,874.4,705,876.6z" class="colorfc9774 svgShape" clip-rule="evenodd"/><path fill="#fbcaa8" fill-rule="evenodd" d="M687.2,891c5.6-9.4,12.9-15.6,16.8-14.7c35.2,16.7,71.1,25.1,107.6,25.3c-9.6,3.7-24.7,19.8-37.7,41.6
			c-13.2,22-20.5,43.1-19,53.2c-19.1-34.4-43.4-62.3-72.9-83.5C679.5,909.6,681.6,900.3,687.2,891z" class="colorfbbfa8 svgShape" clip-rule="evenodd"/><path fill="#ed7d31" fill-rule="evenodd" d="M789.7,943.9l-11.2-8c-1.5,2.3-3.1,4.7-4.5,7.2c-2,3.2-3.8,6.5-5.5,9.7l12.4,5.7c4.2,1.9,9.2,1.1,11.6-2.9v0
			C795,951.5,793.5,946.6,789.7,943.9z" class="colorf57a44 svgShape" clip-rule="evenodd"/><path fill="#ed7d31" fill-rule="evenodd" d="M668.1,928.9l8.6,5.2c-2.9,0.8-5.5,2.2-7.8,4.2l-4.8-2.9c-2.7-1.6-4.5-4.2-5.2-7c-0.7-2.8-0.3-5.9,1.3-8.6
			l8.8-14.7l6.5,3.9l-8.8,14.7c-0.5,0.9-0.7,1.9-0.4,2.9C666.6,927.5,667.2,928.4,668.1,928.9L668.1,928.9z M697.9,946.5
			L697.9,946.5c-1.2,2-2.7,3.1-4.3,3.2c-5-1.1-10.2-3.4-15.6-6.6c-0.9-0.5-1.6-1-2.1-1.4c-0.1,0.2-0.2,0.5-0.4,0.7l17,10.2
			c2.7,1.6,5.8,2,8.6,1.3c2.8-0.7,5.4-2.5,7-5.2l5.3-8.8c-1.8-1.9-3.7-3.7-5.5-5.5l-6.2,10.4c-0.5,0.9-1.4,1.5-2.3,1.7l0,0
			C698.9,946.5,698.4,946.5,697.9,946.5z" class="colorf57a44 svgShape" clip-rule="evenodd"/><path fill="#4f59cc" fill-rule="evenodd" d="M525.2,914.2c0.1,1.6-0.2,3.6-0.7,4.8h0c-0.5,1.4-1.5,2.5-2.9,3.3c-1.6,0.9-3.7,1.4-6.3,1.6
			c-9.6,0.7-24.7-2.9-46.7-11.1l-5.2,2.6c22.6,8.5,42.1,13.5,52.2,12.7c3.3-0.2,6-0.9,8.1-2.1c2.3-1.3,3.9-3.1,4.8-5.4v0
			c0.6-1.7,0.9-3,0.8-5.2L525.2,914.2z" class="color4f8ecc svgShape" clip-rule="evenodd"/><path fill="#4f59cc" fill-rule="evenodd" d="M527.6,929.8c0.6,0.3,1.3,0.2,1.6-0.4c0.3-0.6,0.2-1.3-0.4-1.6c-1.5-0.9-4.4-1-8.9-0.4
			c-4.3,0.6-10.1,1.8-17.3,3.6c-0.6,0.2-1,0.8-0.9,1.5c0.2,0.6,0.8,1,1.5,0.9c7.2-1.8,12.9-3,17-3.6
			C524.2,929.1,526.6,929.2,527.6,929.8L527.6,929.8z M528.1,933.2c-1-0.6-3.4-0.6-7.4-0.1c-4.1,0.5-9.8,1.7-17,3.6
			c-0.6,0.2-1.3-0.2-1.5-0.9c-0.2-0.6,0.2-1.3,0.9-1.5c7.2-1.9,13-3.1,17.3-3.6c4.5-0.6,7.5-0.4,8.9,0.4c0.6,0.3,0.7,1.1,0.4,1.6
			C529.4,933.3,528.7,933.5,528.1,933.2z" class="color4f8ecc svgShape" clip-rule="evenodd"/></g><g class="color000000 svgShape"><path fill="#e09461" fill-rule="evenodd" d="M1255.7,1529.7v-6.7c0-13.9-11.4-25.3-25.3-25.3h-3.6v-4.2h10.8c0.5,0,0.8-0.4,0.8-0.8v-4.9
			c0-0.5-0.4-0.8-0.8-0.8h-171c-0.5,0-0.8,0.4-0.8,0.8v4.9c0,0.4,0.4,0.8,0.8,0.8h154.1v4.2h-43c13.9,0,25.3,11.4,25.3,25.3v6.7
			c0,13.9-11.4,25.3-25.3,25.3h52.6C1244.4,1554.9,1255.7,1543.6,1255.7,1529.7z" class="color61a0e0 svgShape" clip-rule="evenodd"/><path fill="#e9b18b" fill-rule="evenodd" d="M1203.1,1529.7v-6.7c0-13.9-11.4-25.3-25.3-25.3H670.5c-1.5,0-2.9,0.1-4.3,0.4c11.9,2.1,19.4,12.5,19.4,24.9
			v6.7c0,12.4-7.5,22.8-19.4,24.9c1.4,0.2,2.8,0.4,4.3,0.4h507.3C1191.7,1554.9,1203.1,1543.6,1203.1,1529.7z" class="color8bbae9 svgShape" clip-rule="evenodd"/><path fill="#e8e7e6" fill-rule="evenodd" d="M602.8,1526l36.5-16.1l27.4-12.1c11.3,2.8,19.7,13,19.7,25.1v6.9c0,11.8-8,21.8-18.8,24.9l-28.3-12.5
			L602.8,1526z" class="colore6e7e8 svgShape" clip-rule="evenodd"/><path fill="#e09461" fill-rule="evenodd" d="M621.1,1517.9c0.1,5.5,0,10.9-0.1,16.1l-18.1-8L621.1,1517.9z" class="color61a0e0 svgShape" clip-rule="evenodd"/><path fill="#0f1341" fill-rule="evenodd" d="M1255.7,1525.8v-2.9c0-13.9-11.4-25.3-25.3-25.3h-3.6v2.9h3.6C1244.4,1500.5,1255.7,1511.9,1255.7,1525.8
			L1255.7,1525.8z M1238.5,1490.6v-2.9c0-0.5-0.4-0.8-0.8-0.8h-171c-0.5,0-0.8,0.4-0.8,0.8v2.9c0-0.4,0.4-0.8,0.8-0.8h171
			C1238.1,1489.8,1238.5,1490.1,1238.5,1490.6L1238.5,1490.6z M1220.8,1497.7h-43H670.5c-1.1,0-2.2,0.1-3.3,0.2
			c-0.2,0-0.3-0.1-0.5-0.1l-27.4,12.1l-18.3,8.1l-18.3,8.1l36.5-13.3l24.3-10.8c3-1.3,6.5-1.4,9.9-1.4h504.3h43V1497.7z" class="color373435 svgShape" clip-rule="evenodd" opacity=".19"/></g><g class="color000000 svgShape"><path fill="#fff" fill-rule="evenodd" d="M1554.8,1088.5h101.9c4.3,0,7.8,3.5,7.8,7.8v101.9c0,4.3-3.5,7.8-7.8,7.8h-101.9c-4.3,0-7.8-3.5-7.8-7.8
			v-101.9C1546.9,1092,1550.5,1088.5,1554.8,1088.5z" class="colorffffff svgShape" clip-rule="evenodd"/><path fill="#ed7d31" fill-rule="evenodd" d="M1613.1,1175.5l43.3-71l17.8-29.3c3.1-5.1,1.5-11.8-3.6-14.9c-5.1-3.1-11.8-1.5-14.9,3.6l-16.3,26.7
			l-36.6,60.1l-28.8-39.6c-3.5-4.8-10.3-5.9-15.2-2.4c-4.9,3.5-5.9,10.3-2.4,15.2l38.4,52.7c3.5,4.9,10.3,5.9,15.2,2.4
			C1611.2,1178.1,1612.3,1176.8,1613.1,1175.5z" class="colorf57a44 svgShape" clip-rule="evenodd"/></g><g class="color000000 svgShape"><path fill="#fad9c3" fill-rule="evenodd" d="M989.4,499.3c19,0,34.5,15.4,34.5,34.5c0,19-15.4,34.5-34.5,34.5c-19,0-34.5-15.4-34.5-34.5
			C955,514.7,970.4,499.3,989.4,499.3z" class="colorc3dffa svgShape" clip-rule="evenodd"/><path fill="#fff" fill-rule="evenodd" d="M1017.7,554.7c-6.3,8.4-16.3,13.8-27.6,13.8c-19,0-34.5-15.4-34.5-34.5c0-11.9,6-22.4,15.1-28.6
			c-4.3,5.8-6.9,12.9-6.9,20.7c0,19,15.4,34.5,34.5,34.5C1005.6,560.6,1012.2,558.4,1017.7,554.7z" class="colorffffff svgShape" clip-rule="evenodd"/><path fill="#4f59cc" fill-rule="evenodd" d="M989.4,497.8c9.9,0,18.9,4,25.4,10.5l0,0l0,0c6.5,6.5,10.5,15.5,10.5,25.4c0,9.9-4,18.9-10.5,25.4l0,0
			c-6.5,6.5-15.5,10.5-25.4,10.5c-9.9,0-18.9-4-25.4-10.5c-6.5-6.5-10.5-15.5-10.5-25.4c0-9.9,4-18.9,10.5-25.4l0,0
			C970.5,501.8,979.5,497.8,989.4,497.8L989.4,497.8z M1012.8,510.4c-6-6-14.2-9.7-23.3-9.7c-9.1,0-17.4,3.7-23.3,9.7h0
			c-6,6-9.7,14.2-9.7,23.3c0,9.1,3.7,17.4,9.7,23.3c6,6,14.2,9.7,23.3,9.7c9.1,0,17.4-3.7,23.3-9.7v0c6-6,9.7-14.2,9.7-23.3
			C1022.5,524.7,1018.8,516.4,1012.8,510.4L1012.8,510.4z" class="color4f8ecc svgShape" clip-rule="evenodd"/></g><g class="color000000 svgShape"><path fill="#fad9c3" fill-rule="evenodd" d="M1585,905.1c19,0,34.5,15.4,34.5,34.5c0,19-15.4,34.5-34.5,34.5s-34.5-15.4-34.5-34.5
			C1550.5,920.5,1566,905.1,1585,905.1z" class="colorc3dffa svgShape" clip-rule="evenodd"/><path fill="#fff" fill-rule="evenodd" d="M1613.3,960.4c-6.3,8.4-16.3,13.8-27.6,13.8c-19,0-34.5-15.4-34.5-34.5c0-11.9,6-22.3,15.1-28.6
			c-4.3,5.8-6.9,12.9-6.9,20.7c0,19,15.4,34.5,34.5,34.5C1601.1,966.4,1607.8,964.2,1613.3,960.4z" class="colorffffff svgShape" clip-rule="evenodd"/><path fill="#4f59cc" fill-rule="evenodd" d="M1585,903.6c9.9,0,18.9,4,25.4,10.5l0,0l0,0c6.5,6.5,10.5,15.5,10.5,25.4c0,9.9-4,18.9-10.5,25.4l0,0
			c-6.5,6.5-15.5,10.5-25.4,10.5c-9.9,0-18.9-4-25.4-10.5s-10.5-15.5-10.5-25.4c0-9.9,4-18.9,10.5-25.4l0,0
			C1566.1,907.6,1575.1,903.6,1585,903.6L1585,903.6z M1608.4,916.2c-6-6-14.2-9.7-23.3-9.7c-9.1,0-17.4,3.7-23.3,9.7h0
			c-6,6-9.7,14.2-9.7,23.3c0,9.1,3.7,17.4,9.7,23.3c6,6,14.2,9.7,23.3,9.7c9.1,0,17.4-3.7,23.3-9.7v0c6-6,9.7-14.2,9.7-23.3
			C1618,930.4,1614.3,922.2,1608.4,916.2L1608.4,916.2z" class="color4f8ecc svgShape" clip-rule="evenodd"/></g><g class="color000000 svgShape"><path fill="#fad9c3" fill-rule="evenodd" d="M384,1202.9c19,0,34.5,15.4,34.5,34.5c0,19-15.4,34.5-34.5,34.5c-19,0-34.5-15.4-34.5-34.5
			C349.6,1218.3,365,1202.9,384,1202.9z" class="colorc3dffa svgShape" clip-rule="evenodd"/><path fill="#fff" fill-rule="evenodd" d="M412.3,1258.2c-6.3,8.4-16.3,13.8-27.6,13.8c-19,0-34.5-15.4-34.5-34.5c0-11.9,6-22.4,15.1-28.6
			c-4.3,5.8-6.9,12.9-6.9,20.7c0,19,15.4,34.5,34.5,34.5C400.2,1264.2,406.8,1262,412.3,1258.2z" class="colorffffff svgShape" clip-rule="evenodd"/><path fill="#4f59cc" fill-rule="evenodd" d="M384,1201.4c9.9,0,18.9,4,25.4,10.5l0,0l0,0c6.5,6.5,10.5,15.5,10.5,25.4c0,9.9-4,18.9-10.5,25.4l0,0
			c-6.5,6.5-15.5,10.5-25.4,10.5c-9.9,0-18.9-4-25.4-10.5c-6.5-6.5-10.5-15.5-10.5-25.4c0-9.9,4-18.9,10.5-25.4l0,0
			C365.1,1205.4,374.1,1201.4,384,1201.4L384,1201.4z M407.4,1214c-6-6-14.2-9.7-23.3-9.7c-9.1,0-17.4,3.7-23.3,9.7h0
			c-6,6-9.7,14.2-9.7,23.3c0,9.1,3.7,17.4,9.7,23.3c6,6,14.2,9.7,23.3,9.7c9.1,0,17.4-3.7,23.3-9.7v0c6-6,9.7-14.2,9.7-23.3
			C417,1228.2,413.4,1220,407.4,1214L407.4,1214z" class="color4f8ecc svgShape" clip-rule="evenodd"/></g></svg>