<svg xmlns="http://www.w3.org/2000/svg" viewBox="0 0 800 800"><g class="color000000 svgShape" data-name="Secondary shapes"><path fill="#fff2e9" d="M220.52,718.53c0-7.89,81.22-14.28,181.39-14.28s181.4,6.39,181.4,14.28-81.22,14.27-181.4,14.27S220.52,726.41,220.52,718.53Z" class="colore9efff svgShape"/><path fill="none" stroke="#fbb07d" stroke-linecap="round" stroke-linejoin="round" stroke-width="2" d="M456.89,485.21c15.23-19.39,45.8-56.79,102.13-75.92" class="colorStroke807dfb svgStroke"/><path fill="none" stroke="#fbb07d" stroke-linecap="round" stroke-linejoin="round" stroke-width="2" d="M528.18,422.7c2.73.39,10.53,3.19,17.42,10.33" class="colorStroke807dfb svgStroke"/><path fill="none" stroke="#fbb07d" stroke-linecap="round" stroke-linejoin="round" stroke-width="2" d="M534.35,419.51c2-5,5.14-14,5.5-19.08" class="colorStroke807dfb svgStroke"/><path fill="none" stroke="#fbb07d" stroke-linecap="round" stroke-linejoin="round" stroke-width="2" d="M508.77,434.62c1.72-4.17,4.47-15.2,3.71-18.93" class="colorStroke807dfb svgStroke"/><path fill="none" stroke="#fbb07d" stroke-linecap="round" stroke-linejoin="round" stroke-width="2" d="M499.59,441.4c4-.34,12.76-2.19,21.49,5.87" class="colorStroke807dfb svgStroke"/><path fill="none" stroke="#fbb07d" stroke-linecap="round" stroke-linejoin="round" stroke-width="2" d="M485.18,453.74c2-5.51,5.61-13.65,1.25-18.83" class="colorStroke807dfb svgStroke"/><path fill="none" stroke="#fbb07d" stroke-linecap="round" stroke-linejoin="round" stroke-width="2" d="M479,459.77c5.06-1.16,11.18-2.56,19.73,2.72" class="colorStroke807dfb svgStroke"/><path fill="none" stroke="#fbb07d" stroke-linecap="round" stroke-linejoin="round" stroke-width="2" d="M471,468.31c1.25-7,.69-14.3-2.22-17.76" class="colorStroke807dfb svgStroke"/><path fill="none" stroke="#fbb07d" stroke-linecap="round" stroke-linejoin="round" stroke-width="2" d="M459.42,482c5-2,14.71-4.44,21.77.68" class="colorStroke807dfb svgStroke"/><path fill="#ffc49c" d="M568.38,410.64a5.82,5.82,0,1,0-8.1,1.42A5.82,5.82,0,0,0,568.38,410.64Z" class="color9f9cff svgShape"/><path fill="#ffc49c" d="M543.9,402.22a4.46,4.46,0,1,0-6.2,1.1A4.46,4.46,0,0,0,543.9,402.22Z" class="color9f9cff svgShape"/><path fill="#ffc49c" d="M551.17,437.41A4.46,4.46,0,1,0,545,438.5,4.47,4.47,0,0,0,551.17,437.41Z" class="color9f9cff svgShape"/><path fill="#ffc49c" d="M515.28,415.7a4.46,4.46,0,1,0-6.21,1.09A4.46,4.46,0,0,0,515.28,415.7Z" class="color9f9cff svgShape"/><path fill="#ffc49c" d="M504,465a4.46,4.46,0,1,0-6.2,1.1A4.46,4.46,0,0,0,504,465Z" class="color9f9cff svgShape"/><path fill="#ffc49c" d="M471.19,451a4.45,4.45,0,1,0-6.2,1.09A4.45,4.45,0,0,0,471.19,451Z" class="color9f9cff svgShape"/><path fill="#ffc49c" d="M525.3,450.89a5,5,0,1,0-6.95,1.23A5,5,0,0,0,525.3,450.89Z" class="color9f9cff svgShape"/><path fill="#ffc49c" d="M490.11,436.12a5,5,0,1,0-7,1.23A5,5,0,0,0,490.11,436.12Z" class="color9f9cff svgShape"/><path fill="#ffc49c" d="M487.12,487.27a5,5,0,1,0-6.95,1.23A5,5,0,0,0,487.12,487.27Z" class="color9f9cff svgShape"/><path fill="#525ccc" d="M481,609c-15.57-40,9.64-71.24,58.83-82.87C546.64,565,527.78,612.05,481,609Z" class="color5652cc svgShape"/><path fill="#0f1341" d="M458.71,607.3c-37.58-32.75-28.49-78.5,15.84-117C502.57,526.64,508.52,585.19,458.71,607.3Z" class="color20196f svgShape"/><path fill="#f8e8dd" d="M364.25,609.63c11.55-13.28,28.79-55.36-1.07-80.52-13.52-11.38-17.74-13.6-24.81-12.73-4.6.56-8.16,3.33-11.44.82-6-4.6,11.28-26.46-8.9-45.18s-36.9-7.92-42.29-13-.27-15.4-12.45-20.52-20.92,14.24-37.46,9.76c-17.21-4.65-47.41-6.18-51.74,9.8s9.14,18.93,13.53,29.5-5,41.89,20.47,48.76C233.35,543.12,243.7,542,247,574s32.35,47.17,48.07,44.33,11.76,5.36,3.63,9.91,4.66,11.32,16.26,9.88S349.75,626.29,364.25,609.63Z" class="colordde2f8 svgShape"/><path fill="none" stroke="#f8dfce" stroke-linecap="round" stroke-linejoin="round" stroke-width="2" d="M369.07,617.1C328.38,542.63,259.16,491.32,202.5,468.79" class="colorStrokeced3f8 svgStroke"/><path fill="none" stroke="#f8dfce" stroke-linecap="round" stroke-linejoin="round" stroke-width="2" d="M246.75,491c-.07-4.11,2-21.39,7-30.32" class="colorStrokeced3f8 svgStroke"/><path fill="none" stroke="#f8dfce" stroke-linecap="round" stroke-linejoin="round" stroke-width="2" d="M235.42,484.46c-6.25,1.52-19.71,9.06-23.17,11.78" class="colorStrokeced3f8 svgStroke"/><path fill="none" stroke="#f8dfce" stroke-linecap="round" stroke-linejoin="round" stroke-width="2" d="M291.5,523.24c-.62-6.18-1.2-18.7,8-34.72" class="colorStrokeced3f8 svgStroke"/><path fill="none" stroke="#f8dfce" stroke-linecap="round" stroke-linejoin="round" stroke-width="2" d="M274.67,509.87c-5.93.05-24.11,8.06-31.68,12.3" class="colorStrokeced3f8 svgStroke"/><path fill="none" stroke="#f8dfce" stroke-linecap="round" stroke-linejoin="round" stroke-width="2" d="M322.62,553c-8.69.75-17.58,6.81-23.91,10.36" class="colorStrokeced3f8 svgStroke"/><path fill="none" stroke="#f8dfce" stroke-linecap="round" stroke-linejoin="round" stroke-width="2" d="M338.42,571.26c-1.93-8.08.34-23.59,4.63-34.26" class="colorStrokeced3f8 svgStroke"/><path fill="#f7efe9" d="M446.05,623.79c-1.83-7.41,42.52-63.94,53.89-56.16,8.85,6,2.63,15.57.09,18.86-4,5.17-14.39,17-10.1,19.32,7.77,4.24,30.27-29,36.25-36.73s19.71-21.18,30.5-20.23,15.06,2.58,3.84,15.56-36.51,35.81-24,35.74,28.05-22.36,41.63-31.86,42.64-23,42.72-10.56c.07,11.11-43.61,33.18-36.83,38.41,5.41,4.18,14.94-6.31,33.87-17.15s36.91-20.88,44.39-10.23c6,8.56-7.58,12.94-17.71,18.92s-23.93,14.83-17.78,17.44,52.87-31.4,65.65-19.75c8.46,7.71-3.82,11.8-15.22,19.42s-14.83,11.14-12.57,12.88,19.3-6,28.55-10.55,24-7.84,28.56.63-11.06,14.18-17.3,15-11.86,4.17-11.61,6,21,.76,19.9,11.55-21.08,9.89-29.66,3.28-20.4-15.27-22.81-12.14,7.52,10.8,15.34,16.84,9.56,10.23,8,12.31c-5.36,7-20.08,5-25.79.55s-34.56-33.32-38.13-28.69,8.4,14.32,14.72,19.2,21.07,16.25,15.09,24S620.44,672.24,609,662.2s-28.81-27.7-31.57-24.12,8.76,20.08,16.44,26,24.36,12.61,17,22.16-20.57,2.43-35.65-9.19c-6.29-4.86-21.76-17-26.13-28.86-5-13.46-9.66-19.34-12.85-18.34-6.35,2-.38,13.26,5.69,20.32s26.27,27.88,13.78,35.36-24.47-13.4-30.12-21.33-23.12-37.57-29.63-33.8,6.86,17,10.57,21.47,8.39,16.35,2.95,17S449.31,637,446.05,623.79Z" class="colore9edf7 svgShape"/><path fill="#6771e9" d="M95.66,552.51c-13.23,4.6-21.65-5.59-26.12-12C73.69,539.37,90.75,535.9,95.66,552.51Z" class="color6b67e9 svgShape"/><path fill="none" stroke="#6771e9" stroke-linecap="round" stroke-linejoin="round" stroke-width="2" d="M195.17,625.24c-17.91-23-54.42-54.34-101.43-73.71" class="colorStroke6b67e9 svgStroke"/><path fill="#6771e9" d="M187.16,606.58c-7.48-27.27,10.75-37.23,24.36-45.38C213.17,569.72,221.28,599,187.16,606.58Z" class="color6b67e9 svgShape"/><path fill="#6771e9" d="M168.1,587.32c-11.27-19.71.92-31.1,9.87-40.15C181,553.46,193.1,574.57,168.1,587.32Z" class="color6b67e9 svgShape"/><path fill="#6771e9" d="M143.59,570.88c-13.37-14.2-5.48-26.17.18-35.54C147.53,540,161.92,555.19,143.59,570.88Z" class="color6b67e9 svgShape"/><path fill="#6771e9" d="M118.69,557c-10.45-6.16-7.81-14.67-6-21.24C115.69,537.84,126.91,544.42,118.69,557Z" class="color6b67e9 svgShape"/><path fill="#6771e9" d="M175.07,615.05c-22.73-10.31-33.94,4.2-42.93,14.92C139.33,632.6,163.68,643.72,175.07,615.05Z" class="color6b67e9 svgShape"/><path fill="#6771e9" d="M153.94,594.49c-18-11.83-29.48-1-38.58,7C121.14,604.64,140.39,617.39,153.94,594.49Z" class="color6b67e9 svgShape"/><path fill="#6771e9" d="M125.43,574.05c-14-4.37-19.54,4.93-24,11.85C105.81,586.91,120.86,591.64,125.43,574.05Z" class="color6b67e9 svgShape"/><path fill="#6771e9" d="M105.26,561.62c-7.58-4-11.72.74-15,4.23C92.64,566.9,100.76,571.22,105.26,561.62Z" class="color6b67e9 svgShape"/><path fill="#fc6906" d="M336.26,698.31c19.68-12.92,68.16-108.18,30.05-126.64-36.13-17.5-47.59,57-49.74,66.69-7.53-36.56-17.38-72.05-41.49-65.6s0,58.07,0,58.07c-22-28-76.68-71-101.58-58.07S224.09,632,224.09,632c-34.31-19.47-136.84-45.67-34.44,3.79-46.88-15.16-138.31-22.6-36.68,9-61.17-5.31-92.22,3-93.29,11.62s16.87,20.78,95.92,22.77c-39,6.46-58.63,15.59-48.57,19.09Z" class="colorfcba06 svgShape"/><path fill="#fff" d="M205.27,652.33a3.18,3.18,0,1,0-3.17,3.18A3.17,3.17,0,0,0,205.27,652.33Z" class="colorffffff svgShape"/><path fill="#fff" d="M314.29,671a4.89,4.89,0,1,0-4.89,4.89A4.88,4.88,0,0,0,314.29,671Z" class="colorffffff svgShape"/><path fill="#fff" d="M250.66,634.82a4.18,4.18,0,1,0-4.18,4.17A4.17,4.17,0,0,0,250.66,634.82Z" class="colorffffff svgShape"/><path fill="#f8dfce" d="M645.22,194.06c24.54,17.57,50.23,5.83,66.72-25.66C686.62,157,651.29,161.63,645.22,194.06Z" class="colorced3f8 svgShape"/><path fill="#f7efe9" d="M632.14,193.58c44.22-6,59.89-44.76,45.62-95.35C638.94,111.67,605.71,152.57,632.14,193.58Z" class="colore9edf7 svgShape"/><path fill="none" stroke="#fff" stroke-linecap="round" stroke-linejoin="round" stroke-width="2" d="M632.14,193.58c7.11-17.36,29.63-57,40.58-83.41" class="colorStrokeffffff svgStroke"/><rect width="174.47" height="151.42" x="488.8" y="177.56" fill="#6771e9" class="color6b67e9 svgShape" rx="28.5"/><path fill="#525ccc" d="M648.79,183.32A33,33,0,0,1,654.54,202v89a29.29,29.29,0,0,1-29.29,29.29h-112a33,33,0,0,1-18.67-5.75A33.11,33.11,0,0,0,522,329H630.12a33.15,33.15,0,0,0,33.15-33.15V210.71A33.11,33.11,0,0,0,648.79,183.32Z" class="color5652cc svgShape"/><path fill="#ffc49c" d="M545.3,206.12a58.26,58.26,0,0,1,6.24-4.67,43.45,43.45,0,0,1,7.24-3.78,47.1,47.1,0,0,1,8.45-2.54,49.68,49.68,0,0,1,9.78-.92,41,41,0,0,1,13.13,2,29.16,29.16,0,0,1,10.06,5.63,25.23,25.23,0,0,1,6.48,8.82A28,28,0,0,1,609,222.14a29.16,29.16,0,0,1-1.73,10.59,29.72,29.72,0,0,1-4.34,7.76,33.49,33.49,0,0,1-5.76,5.72q-3.14,2.41-6,4.51a44.25,44.25,0,0,0-4.87,4.14,8.72,8.72,0,0,0-2.53,4.55l-2,11.51H566.55l-1.53-13a10.64,10.64,0,0,1,1-6.72,19.8,19.8,0,0,1,4.1-5.23,55.24,55.24,0,0,1,5.76-4.59,58.16,58.16,0,0,0,5.95-4.75,24.76,24.76,0,0,0,4.67-5.71,14.47,14.47,0,0,0,1.9-7.53,10.57,10.57,0,0,0-3.67-8.45q-3.66-3.15-9.7-3.14a24.81,24.81,0,0,0-7.44,1,31.2,31.2,0,0,0-5.2,2.14c-1.45.77-2.68,1.48-3.7,2.13a5.48,5.48,0,0,1-2.9,1,5,5,0,0,1-4.59-2.65Zm15.05,94.51a12.77,12.77,0,0,1,1-5,12.34,12.34,0,0,1,2.78-4.11,13.52,13.52,0,0,1,4.14-2.74,13.19,13.19,0,0,1,5.19-1,13.27,13.27,0,0,1,9.34,3.74,12.49,12.49,0,0,1,2.78,4.11,12.8,12.8,0,0,1-2.78,14.17,12.57,12.57,0,0,1-4.18,2.69,13.69,13.69,0,0,1-5.16,1,13.55,13.55,0,0,1-5.19-1,12.71,12.71,0,0,1-4.14-2.69,12.49,12.49,0,0,1-2.78-4.07A12.71,12.71,0,0,1,560.35,300.63Z" class="color9f9cff svgShape"/><rect width="174.47" height="151.42" x="121.43" y="81.21" fill="#f8e8dd" class="colordde2f8 svgShape" rx="28.5"/><path fill="#f8dfce" d="M281.42,87a33,33,0,0,1,5.75,18.67v89a29.29,29.29,0,0,1-29.29,29.29h-112a33,33,0,0,1-18.66-5.75,33.11,33.11,0,0,0,27.39,14.48H262.75a33.15,33.15,0,0,0,33.15-33.15V114.36A33.11,33.11,0,0,0,281.42,87Z" class="colorced3f8 svgShape"/><path fill="#6771e9" d="M205.8,177.56h-3.13q-.16-9,.87-13.47t5.39-12.3a64.88,64.88,0,0,0,5.72-12.58A43,43,0,0,0,216,127.48q0-10.78-4.28-15.91t-10.11-5.11a11.73,11.73,0,0,0-7.44,2.35c-1.51,1.19-2.27,2.44-2.27,3.73a9.94,9.94,0,0,0,1.54,4.06q3.49,6.25,3.49,10.63a9,9,0,0,1-2.71,6.66,9.27,9.27,0,0,1-6.76,2.67,10.1,10.1,0,0,1-7.61-3.2,11.7,11.7,0,0,1-3.08-8.48q0-9.57,8.29-16.79t23.18-7.21q15.77,0,24,7.5a23.67,23.67,0,0,1,8.26,18.14,25.55,25.55,0,0,1-4.27,14.24q-4.28,6.54-16.51,14.48-8.2,5.37-10.8,9.54T205.8,177.56Zm-.68,11.85a13,13,0,1,1-9.26,3.81A12.63,12.63,0,0,1,205.12,189.41Z" class="color6b67e9 svgShape"/><path fill="#2e3694" d="M281.87,349.53c24.41,0,42.3,14.44,42.3,35.07v.86c0,19.78-12.73,28.37-25.45,33.88l-3.78,1.54c-4.3,1.89-5.68,4.3-5.68,9.46v6.19H269.49v-7.39c0-11.18,3.44-18.23,14.27-22.87l3.61-1.55c11-4.81,16.85-9.11,16.85-19.09,0-10.83-9.28-17.53-22.35-17.53-13.59,0-24.07,6.7-24.07,19.94v4.82H238v-5.68C238,363.63,257.11,349.53,281.87,349.53ZM279.29,445c8.6,0,15,6.19,15,14.78,0,8.77-6.36,15-15,15-8.43,0-14.79-6.19-14.79-15A14.37,14.37,0,0,1,279.29,445Z" class="color362e94 svgShape"/><path fill="#0f1341" d="M469.38,28.2c16.89,0,29.26,10,29.26,24.26v.59c0,13.68-8.81,19.63-17.61,23.43l-2.61,1.07c-3,1.31-3.93,3-3.93,6.54v4.29H460.82V83.26c0-7.73,2.37-12.61,9.87-15.82l2.49-1.07c7.62-3.33,11.66-6.3,11.66-13.2,0-7.49-6.42-12.13-15.46-12.13-9.4,0-16.65,4.64-16.65,13.8v3.33H439.05V54.24C439.05,38,452.25,28.2,469.38,28.2Zm-1.78,70a10.29,10.29,0,1,1-10.23,10.23A10,10,0,0,1,467.6,98.23Z" class="color20196f svgShape"/><path fill="#2e3694" d="M354.75,409.91c0,37.55.14,205.86.14,282.74h13.64c7.66-19.06,58.74-246.48,63.92-282.74Z" class="color362e94 svgShape"/><path fill="#f0d3c0" d="M368.53,697.65v-5H354.89a33.51,33.51,0,0,1-1.57,9.08C356.87,703.1,362.06,699.57,368.53,697.65Z" class="colorf0ccc0 svgShape"/><path fill="#0f1341" d="M368.53,697.65c-6.47,1.92-11.66,5.45-15.21,4.08C351.44,703.1,323.78,713,321,715s-2.46,5,.59,5c4.46,0,41.2-1.61,41.2-1.61.75.81,1.35,1.61,1.35,1.61h8.39C375,715.66,374.32,702.64,368.53,697.65Z" class="color20196f svgShape"/><path fill="#f0d3c0" d="M468.84,697.65v-5H455.2a33.61,33.61,0,0,1-1.56,9.08C457.19,703.1,462.37,699.57,468.84,697.65Z" class="colorf0ccc0 svgShape"/><path fill="#0f1341" d="M468.84,697.65c-6.47,1.92-11.65,5.45-15.2,4.08C451.76,703.1,424.09,713,421.27,715s-2.45,5,.6,5c4.46,0,41.2-1.61,41.2-1.61.74.81,1.34,1.61,1.34,1.61h8.4C475.31,715.66,474.63,702.64,468.84,697.65Z" class="color20196f svgShape"/><path fill="#3e47af" d="M455.38,409.91c.77,14.25,13.46,205.86,13.46,282.74H455.2c-7.66-19.06-72.35-246.48-77.53-282.74Z" class="color423eaf svgShape"/><path fill="#ed7d31" d="M388.71,247.05c-12.6,16.83-48.66,59.9-57.18,67.22s-21.41,25,.45,21.79c20-5.59,54.7-18.67,64.79-35.43S388.71,247.05,388.71,247.05Z" class="colored9f00 svgShape"/><path fill="#fc6906" d="M455.38,409.91H354.75c2.63-36.37,3.42-128.89,20.1-149.24,19.74-24.08,33.9-21.31,53.25-2C454.2,284.81,459.38,379.58,455.38,409.91Z" class="colorfcba06 svgShape"/><path fill="none" stroke="#ed6000" stroke-width="4" d="M392.45,250.9c-5.37,8.15-16.9,37.38-17.6,65.26-.51,20.14-1.89,37.36-3.08,93.75" class="colorStrokeed9f00 svgStroke"/><path fill="#f0d3c0" d="M413.3,221c-.6,4.86-.82,23.34,3.3,28.63-3,2.26-18.65,5.43-30.37.74,2.52-3.11,6.5-5.2,3.29-10.71-3.5-6-9.42,2.07-14.11-7.77-5.48-11.47-7.13-34.09-1.7-40.39,6.07-7.05,18.18-15.68,34.55-6.06C421.62,193.31,414.52,211.15,413.3,221Z" class="colorf0ccc0 svgShape"/><path fill="#0f1341" d="M401,209.92c-3.72.06-1.82-9.69-4.55-12-3.23-2.74-14-4.33-24.48-3.17s-17-12.5-10.31-18.17,12.78,2.14,17.77.48c5.81-1.94,4.78-9,13.42-8.29,8,.69,4.35,8.11,9.42,9.42,5.23,1.36,12.9-5.57,19.29,2.62,4.73,6.07-2.39,9.62-1.63,16.38.48,4.22,11,16.68-.35,22s-8.72-6.3-8.12-11.09-1.57-7.94-4-8S406.29,209.85,401,209.92Z" class="color20196f svgShape"/><path fill="#ed7d31" d="M415.1,245.21c-2.78,1.39-20.12,4.43-26.08.95a17,17,0,0,0-2.79,4.24c4.16,2.49,19.75,5.13,30.64-.47C416.18,248,415.1,245.21,415.1,245.21Z" class="colored9f00 svgShape"/><path fill="#ff8c3e" d="M427.6,258c18.28,15.34,55.63,63.45,55.63,98.84s-29.93,68.91-39.76,78.73l-11.93-11.93c7.28-7.27,26.58-55.34,23-68.86s-20.61-28.16-35.72-43.27-16.57-27.83-13.92-37.37S420,251.55,427.6,258Z" class="colorffd03e svgShape"/><path fill="#f0d3c0" d="M431.54,423.59c-3.44,0-5.69.13-8.74,3.18,3.05,1.59,20.67,8.75,20.67,8.75Z" class="colorf0ccc0 svgShape"/><path fill="#ed7d31" d="M443.57,436.23s-12.81-13.39-13.78-14.14a82.73,82.73,0,0,1,6.86-10c2.74,2.13,16.82,14.28,16.88,14.87C452.32,428.4,443.57,436.23,443.57,436.23Z" class="colored9f00 svgShape"/><path fill="#ff8c3e" d="M370.94,239.43c-4.62,7.62-76,84.05-58.67,93.88,12.49,7.09,26.52,1.28,33.52-9.17,4.78-7.14,35.52-72,36.18-76.43C378.67,246.37,370.94,239.43,370.94,239.43Z" class="colorffd03e svgShape"/><path fill="#ed7d31" d="M371.09,238.68c-2,.77-9.51,10.39-9.51,10.39.08,2.67.95,6.62,4.35,8.83,4.07,2.65,10.09,1.61,12.61.19,1.47-3.4,3.94-8.72,5.41-12.16C385.87,241.43,371.09,238.68,371.09,238.68Z" class="colored9f00 svgShape"/><path fill="#e8c3aa" d="M377.27,233.42c6.91-.86,16-6.71,17-5.48s-8.06,8.06-10.06,8.8c.39,5.75-.78,9.83-3.55,12.44-3.69,3.47-10.4,2.35-11-4.58-.13-1.61.89-12.24,4.81-14.66C375.49,232.09,375.9,233.59,377.27,233.42Z" class="colore8b7aa svgShape"/><path fill="#ff8c3e" d="M737.77,69.57l-13.14-5.22a3.08,3.08,0,0,0-3.06.45l-11.09,8.76a3.1,3.1,0,0,0-1.14,2.88l2,14a3.09,3.09,0,0,0,1.92,2.42l13.13,5.22a3.09,3.09,0,0,0,3.06-.44l11.09-8.77A3.07,3.07,0,0,0,741.73,86l-2-14A3.09,3.09,0,0,0,737.77,69.57Z" class="colorffd03e svgShape"/><path fill="#fbb07d" d="M592.74,748.59,608,770.23a3.72,3.72,0,0,0,6.42-.59l11.11-24a3.72,3.72,0,0,0-3.72-5.27l-26.37,2.4A3.73,3.73,0,0,0,592.74,748.59Z" class="color807dfb svgShape"/><path fill="#fc6906" d="M58.46,304.3l8.28,20.59a3.12,3.12,0,0,0,5.35.76l13.7-17.46a3.13,3.13,0,0,0-2-5L61.8,300A3.13,3.13,0,0,0,58.46,304.3Z" class="colorfcba06 svgShape"/></g></svg>