<svg xmlns="http://www.w3.org/2000/svg" data-name="please register" viewBox="0 0 1080 1080"><path fill="#f9decb" d="M1035.41 889.32c0 11.83-98 22.72-255.81 28.45s-350.6 5.37-503.31-.93S35.06 899.31 45.13 887.5l494.75 1.81Z" class="colorf9f1cb svgShape"/><path fill="#ed7d31" d="M753.4 366.62v14.78l2.84 56.06a55.09 55.09 0 0 0 11.36 2.27c5.5.38 7.39 3 19.7 9.66.55.3 1.06.6 1.56.9-3.11-2.36-6.37-4.22-9.31-7.32-5.49-5.76 12.59-7 24.51-5.89s24.24 2 24.24 2 6.56-9.91 11.78-6 17.55 25.71 17.55 25.71c13.12 3.08 28.52 17.41 32 21.29s22.23 25.85 22.23 25.85-1.61 6.7-15.67-4.68-28.13-28.93-28.13-28.93-12.05 9-13.66 17.81-5.76 8.71-5.76 8.71-10.35-15.37-12.16-20.68c-2.72 1.42-7 1.5-17.3-.89-11.92-2.74-16.39-7.55-20.07-13.63a10.36 10.36 0 0 1 .11 1.29s-16.67-10.6-27.27-13.07-15.53-7.38-17.62-2.27-1.71 37.13-1.71 37.13a25.45 25.45 0 0 1 23.87 4.54c11.56 9.28 32.2 13.64 32.2 13.64s-20.08 5.3-28.79-2.84-23.86-12.32-25.57-7.58.76 78 .76 78 18.75 17 42.24 20.64 48.48-2.08 60.79-14.2 1.71-26.71 1.14-47.73 7.58-8 7.58-8 45.27 47 59.09 45.65 18-10.8 18.38-28.22-21.78-113.08-27.09-128.8-42.05-38.64-44.7-37.5a94.1 94.1 0 0 0-16.48 9.85c-7.2 5.3-13.25 9.09-33.9 7S797.72 367 797.72 367s.94-.94-13.07.39-31.25-.77-31.25-.77Z" class="colorf37a81 svgShape"/><path fill="#9a592d" d="M293.24 207.34s-11.55 6.34-15.81 17.23-29.83 36.94-31 43.28-4.07 10.32-3 23.2 8.62 49.06.48 77.85-30.31 68.94-38.64 82.39-19.89 39.58-17.81 52.84 33.52 35 46 39.78 18.37 3 17-5.31-1.7-26 2.65-45.27 6.44-43.94 6.44-43.94l1.9-8.52s9.09 2.08 15.53-16.1 6.06-16.48 6.06-16.48l19.65-18.35-.53-8.17.13-10.58 1.29-3.83s.85-11.31-9.59-21.08-10.85-34.15-10.85-34.15l-4.29-5.89-9.51-.41s17.15-7.9 22.64-18.61 8.17-24.78 9.37-36.29 7.63-8.31 13.8-5.23 12.18 14.87 16.2 27.05a258.38 258.38 0 0 1 7 28l2.27 27.59-7.9 13.27 9.91 14.46s5.9-2 9.51 3.21 28.39 8.17 28.39 8.17l-2-34.68s-5.76-19-19.42-28.66-19.68-12.32-19.68-12.32 13.52-23.44 2.94-41.66S322 231 317.49 223.34s-8.06-16.33-24.26-16Z" class="color9a702d svgShape"/><path fill="#fe9751" d="M305.08 401.1s-8.71 5.68-8.81 8.14 12.52 23 15.47 31.6 4.28 19.55 1.34 34.28-2.54 39.65-2.54 39.65 41.65 6 45.8 7.36 14.46 3 16.87 2.41a36.69 36.69 0 0 0 5.49-1.87l1.07-63.89.81-91.34-13.8-.4s11.39 27.19 10.72 45.4-8.17 25.32-23 26.79-28-9.65-28-9.65-19.74-13.71-21.39-28.48Z" class="colorfed251 svgShape"/><path fill="#fe9751" d="M329.8 580c-1.61-1.61-11.56-18-11.56-18l58.76 2.36s0 20.18-.48 20.18-42 .28-46.68-4.55Z" class="colorfed251 svgShape"/><path fill="#ad866c" d="M317.58 575.82s-7 39.3-32.39 72.26-46 50.76-67.61 61.75S167.57 736 158.86 753s-12.88 38.45-10 43.57 15.53 14.39 33.72 9.85 45.07-13.26 45.07-13.26-19.13-9.85-36.93-7 17.61-9.47 33.52-3.79 44.7 15.34 57.39 9.66S331 751.69 336 716.46s12.12-20.65 10.6-4.74-21.21 62.69-41.29 77.66-25.38 16.29-25.38 16.29 29.17 17.61 52.85 22.73 41.67 5.49 45.46.56 2.65-15.91 2.65-18.75-4.36-143.37-4.36-143.37l2.08-84.1s-40.91 3.22-61-6.91Z" class="color6cad8a svgShape"/><path fill="#9a592d" d="M766.36 264.86a20.17 20.17 0 0 0 7.1-14.94c.13-9.64 2.14-19.28 3.68-22.16s4.69-4.15 6.7-3.15 13.59 12.79 17 11.85 13.66-15.53 18.14-17.88 26 16.74 33.69 24.65 13.93 9.31 15.6 18.21 1.48 18.55.61 20.43-8.11-1.41-11.72-.4-9.38 3-9.65 9.37-2.48 10.92 2.28 10.38 14.73-3 15.13-1.94.47 7.7-.2 11.19-1.14 7.56-4.09 8.5-12.45-.6-12.52-2.34-2.94-13.93-3.48-14.14-4.95 3.89-7.1-8.56-2.88-23-2.88-23 8.77-8 8.91-8.44-15.61 9.24-25.32.94-12-17.81-15.66-19-5.43 3.95-6.43 5.49-7.57 9.91-10.78 11.39-5-6.63-5.69.8-1.21 15.6-1.21 15.6-6.49-1.6-9.31-6.69-2.8-6.16-2.8-6.16Z" class="color9a702d svgShape"/><path fill="#f9decb" d="M639.19 318.69s17.41 40.45 3.22 71.25-68 60.81-122.95 40.72-31.34-100.18-31.34-100.18.54 62.68 45.54 76.34 75-1.6 90.53-24.91 15-63.22 15-63.22Z" class="colorf9f1cb svgShape"/><path fill="#f9decb" d="M725.18 387.53S711.78 722.89 670 777s-80.62 38.57-80.62 38.57-7.5 15-22.77 15-20.9-16.88-20.9-16.88-72.32 10.72-103.92-30.53S397 704.41 397 704.41l2.41 106.34s-9.37 41 44.74 44.46 206.51-1.6 206.51-1.6l30-2.87s38.31 10.1 41-23.92S723.29 604 723.29 604Z" class="colorf9f1cb svgShape"/><path fill="#f9decb" d="M664.64 679.23s-78.48 41.52-131 45.54-62.14-14.47-62.14-14.47-.27 35.36 24.37 36.43 97 1.88 119.47 1.88 41.51-1.08 45.8-4.83 6.43-9.91 6.16-20.89-2.68-43.66-2.68-43.66Z" class="colorf9f1cb svgShape"/><path fill="#f9decb" d="M660.78 455.46s-1.14 21-56.25 22.92-131.26-.57-131.26-.57-5.68 10.42 25.76 12.31 134.48-1.32 143.76-2.46 19.7-3 20.83-9.66 3.03-21.79-2.84-22.54Z" class="colorf9f1cb svgShape"/><path fill="#f9decb" d="M660.78 527.05s-1.14 21-56.25 22.92-131.26-.57-131.26-.57-5.68 10.42 25.76 12.31 134.48-1.32 143.76-2.46 19.7-3 20.83-9.66 3.03-21.78-2.84-22.54Z" class="colorf9f1cb svgShape"/><path fill="#f9decb" d="M660.78 593.91s-1.14 21-56.25 22.92-131.26-.57-131.26-.57-5.68 10.42 25.76 12.31 134.48-1.32 143.76-2.46 19.7-3 20.83-9.66 3.03-21.78-2.84-22.54Z" class="colorf9f1cb svgShape"/><path fill="#d19872" d="M755.86 599.59s0 65.92-.76 82-4 54.74-3.22 54.36 21.78-36.93 24.06-39.58 28.41-36.94 28.41-36.94 19.22-1.43 25.65-2.36 29.08 38.17 36.84 51.62 8.33 15.53 8.33 26.32-.18 52.85 4 55.12 27.46 14.58 33.15-1.14 10-51.9 10-51.9 5.3-28.78-4.17-46.78S872 596 872 596s-6.43-1.23-10.13 1.9-46.31 22-75.48 13.25-30.49-11.55-30.49-11.55Z" class="color72ccd1 svgShape"/><path fill="#efb187" d="M404.42 158.18c-17.39 0-24.17 13.8-25.23 23.29-.28 2.58-1 16.7-1.44 31.37-.73 22-.43 36-1.84 39.85l7.54-5.44.73-39.42c.71-26.26.86-27.91 3.08-32.29 3.46-6.83 6.62-9.94 16.48-11.12 6.23-.75 15.13-.73 28.46-.4 30.11.76 47.68.83 173.62.72 83.79-.07 98.87.14 106.47 1.46 10.11 1.76 19 5.42 22.78 9.32 6.55 6.83 8.5 22.49 6.75 54.17-.69 12.36-1.66 26.74-1.93 32l-.56 14.78 8.64 1.4c-2.11-1.17-2.18-5.93-1.78-10.95.26-3.15 1-19.45 1.62-36.23 1.22-31.93.8-39.5-2.78-50.44-2.2-6.73-9.06-13.43-16.73-16.35-13.95-5.32-12.56-5.27-178.44-5.49Zm229.79 19.09a36.91 36.91 0 0 0-6.7.27c-2.34.9-7.75 6.46-13.19 13.58a23.85 23.85 0 0 1-7.5 5.91c-4.53 2.09-5.47 2.12-50.46 1.85-39.62-.23-46.28-.49-49-1.87-1.74-.87-6.76-5.07-11.15-9.32-4.84-4.67-9.46-8.21-11.68-8.94-2.7-.88-12.56-1.07-36.9-.7l-26.07.39c-9.09-.32-17.82 13.08-18.43 18a52.49 52.49 0 0 1-1.53 7.19c-.58 1.92-1.41 10.29-1.61 18.59l-.54 22.85c4.39 3.69 8.19 14.06 8.19 13.73-1.92-4.22-2.15-19.91-1.69-34.14.35-11.34 2.21-20.7 3.32-27.6.71-4.44 6.48-12.4 12.58-12.4l28-.24 33.67-.29 8.33 8.11c8 7.75 13.38 11.4 18.84 12.7 4.9 1.16 85.26 1 91-.21a32.92 32.92 0 0 0 20.11-13.36c6-8.53 5.9-8.5 23.91-7.66 8.52.4 21.13.83 28 1 12.57.24 30.58 1.52 34.73 2.47 5.8 1.32 12.2 9.85 14.34 19.14 1.29 5.62-.55 68.35-2.11 72.25a19.87 19.87 0 0 1 6.85-2.47l.7-15.76c.38-5.62.74-20.11.8-32.2.09-18.15-.19-23-1.61-27.67-3.54-11.69-13.06-19.95-23.48-20.37-3.15-.13-21.1-1-39.9-1.84-13-.61-23.44-.95-29.81-1Zm-50.54 1.83c-5.78 0-13.7.23-24.53.55-17.56.53-36.1 1-41.19 1-7.37 0-9.24.32-9.24 1.47 0 2.37 1.79 2.85 13.41 3.56 17.32 1.06 27.46 1 50.09 0 24.43-1.18 26.5-1.48 26.5-3.94 0-2-2.33-2.68-15-2.61Zm-23 64.72c-2.55 0-5.06 0-7.44.19-7.9.48-10 1-17.24 4.64a89.33 89.33 0 0 0-46.64 58.09c-6.27 25.09-4.19 47.21 6.47 68.84 4.31 8.74 6.44 11.72 13.26 18.54 5 5 10.47 9.35 14.13 11.26 26.48 13.78 58.28 13.46 81.49-.32 21.26-12.63 35.06-37.4 36.67-65.9a107.67 107.67 0 0 0-7.72-45.63c-8-19.52-26.4-38.44-44.32-45.68-5.86-2.36-17.63-3.94-28.66-4.03Zm-.43 6c3 0 6.42.16 10.25.51 11 1 12.46 1.37 19.81 5.19 25.39 13.21 41.39 38.13 44.29 69q2.31 24.56-6.85 44.73a95 95 0 0 1-6.4 11.51l-3.64 5.4v-4.56c0-14.68-12.48-28.44-31.3-34.5-11.08-3.58-28.6-4.43-40.68-2-21.38 4.33-35 16.48-36.83 32.79l-.69 6.23-3.19-5c-9.95-15.52-14.12-34.19-12.19-54.65 2.88-30.69 18.92-55.78 44-68.81a46.5 46.5 0 0 1 23.42-5.85Zm6 28.6a27.53 27.53 0 0 0-5 .53c-26.53 4.75-30.65 35.21-6 44.69 6.16 2.37 16.19 2.6 21.26.48 15-6.28 15.6-23.67 1.28-39.32-4.2-4.57-7.07-6.36-11.49-6.39Zm-.18 6.26c5.67 0 15.56 13.81 15.58 21.79 0 4.15-2.33 8.77-5.25 10.34-7.8 4.2-20.61 1.77-27.26-5.17-2.18-2.27-2.91-4.14-3.26-8.32-.42-5.12-.25-5.61 3.42-9.68 4.28-4.7 12.25-8.94 16.82-8.97ZM405 292.76l-5.47.7-.25 7.67c-1.73 11.93-2.76 49.18-3.57 129.53-.49 49.22-.95 92.3-.95 92.3l6.31.25.32-73.8c.3-65.59 1.42-119.8 3-144l.62-12.67Zm-27.38.38-.35.31c.71 1.05.42 6.81.21 17.21l-.27 14.5-.09 38.95v.05l-.1 24c-.45 10.45-.78 44.5-.76 75.66l.04 59.18 6.54.19-.44-13.3c-.19-5.92-.23-36.63 0-68.25s.54-76.71.64-100.19c.08-21.35.34-42.89.58-46.16Zm368.65 28.65-6.89 1.83.71 61.24c.77 65.14 1.07 203.64.7 360.73-.24 101.4-.31 104.59-2.24 109.74-5.49 14.68-15.27 22.36-33 25.88-4.61.92-15.67 5.56-15 5.51l27.57-2.08 5.5-3.14c11.36-6.49 15-10.75 20.09-23.34 2-4.73 2.19-9.8 2.41-14.87V737.78l-.31-11.31c-.17-6.22.21-33.59.84-60.81s1.08-53.94 1-59.36c-.09-5.14 0-19.27 0-19.27v-14.79l.32-8.44-.64-36.56-.64-36.56v-7.25l-.12-3.14c-.19-5-.19-6.34 0-22.83 0 0 .25-24.52-.24-41.08-.35-11.67-.9-30.4-1.24-41.62-.42-14 .54-51.32 1.2-53Zm-27.66 2.13-.77.15c2.5 1 2.81 4.62 3.34 10 1.14 11.65.86 180.82-.43 265.06-1.33 86.69-1.58 132-1 184.5.35 32.77-1 47.46-5.27 56-2 4-3 4.83-9.24 7.42-6.47 2.69-8.35 3-24.5 3.66-25.06 1.06-199.71 1.79-223.5.93-31-1.11-35.84-2-43.7-7.68-9.35-6.79-11.75-16.25-11.78-46.37 0-10.2-.45-24.38-1-31.5-1.48-20.14-2.22-176.22-.91-193.31l1.1-14.36-6.9 1v5.75c0 5.77-.48 167.25.82 207.5.6 18.42 1.05 37 1 41.31-.12 9 1.89 19.78 4.74 25.37 2.73 5.37 10.17 12 17 15.1 5.4 2.48 6.83 2.64 30.18 3.45 34.23 1.19 70.61 1.34 142.5.6 88.1-.9 103.1-1.49 112.59-4.45 13.84-4.32 18-9.06 20.52-23.65 1.79-10.12 3-43.19 2.4-62.73-.64-19.37-.55-48.25.4-129.5 1.85-157.94 2.1-256.76 1.12-287.68l-.78-24.63c-.2-6.49-7.85-1.93-7.85-1.93ZM562.68 350.3A71.73 71.73 0 0 1 580 352c21.6 5.23 34.92 20.92 30.78 36.27-2.11 7.86-6.79 11.42-22.32 17-3.94 1.42-38.4 6.64-61-4.79-5.29-2.66-6.16-3.57-8.8-9.16-3.63-7.67-3.79-13.33-.58-20.2 2.74-5.85 10-12.89 16.07-15.57 7.43-3.26 18.2-5.12 28.53-5.25Zm30 92.6q-20.12 0-46.5.36c-62 .84-66.18 1-69.11 2.78-6 3.63-6.84 6.47-6.72 22.31.13 16.73 1.44 20.85 7.33 22.92 2.63.93 19.82 1.26 69 1.32 60.29.07 83.31-.56 104.4-2.89 12.8-1.4 15.74-4.91 16.41-19.54.61-13.35-2-20.48-8.71-24-4.26-2.16-25.85-3.26-66.08-3.26Zm3.68 6.83c30.14 0 54.75.25 56.65.87 6.2 2 8.1 5.19 8.72 14.39 1.07 15.84-1 18.65-13.91 18.68-4.75 0-13.81.43-20.14.94s-41.91 1.2-79.09 1.53c-65.31.57-67.67.53-69.93-1.3s-2.37-2.81-2.78-13.4c-.45-11.85.51-17.46 3.4-19.86 1.31-1.07 66.87-1.84 117.1-1.85ZM612 466.05c-24.61 0-72.23.64-77.06 1.23-4.48.54-6.61 2.87-4.08 4.46 3.31 2.1 76.77.78 93.64-1.68 4.6-.68 5.72-2.78 2-3.76-.7-.17-6.34-.25-14.5-.25Zm-104.17 2.61q-8.77 0-7.39 3.62c.64 1.69 10.45 1.91 13.44.31 3.5-1.9.37-3.93-6.1-3.93Zm84.87 45.24q-20.12 0-46.5.36c-62 .84-66.18 1-69.11 2.78-6 3.63-6.84 6.47-6.72 22.31.13 16.73 1.44 20.85 7.33 22.92 2.63.93 19.82 1.26 69 1.32 60.29.07 83.31-.56 104.4-2.88 12.8-1.41 15.74-4.92 16.41-19.55.61-13.35-2-20.48-8.71-23.95-4.28-2.21-25.87-3.3-66.1-3.31Zm3.68 6.83c30.14 0 54.75.25 56.65.87 6.2 2 8.1 5.19 8.72 14.39 1.07 15.84-1 18.65-13.91 18.68-4.75 0-13.81.43-20.14.94s-41.91 1.2-79.09 1.53c-65.31.58-67.67.53-69.93-1.3s-2.37-2.82-2.78-13.41c-.45-11.84.51-17.45 3.4-19.85 1.29-1.07 66.85-1.84 117.08-1.85ZM612 537.05c-24.61 0-72.23.64-77.06 1.23-4.48.54-6.61 2.87-4.08 4.47 3.31 2.1 76.77.77 93.64-1.7 4.6-.67 5.72-2.77 2-3.75-.7-.17-6.34-.24-14.5-.25Zm-104.17 2.61q-8.77 0-7.39 3.62c.64 1.69 10.45 1.91 13.44.31 3.5-1.9.37-3.93-6.1-3.93ZM374.51 553c-.24 1.31.19 13.68.19 13.68v90.1c0 41.61.5 80.2 1.21 94 .66 12.87 1.22 37.33 1.25 54.35v30.94s.57 9.9.88 13.64c.93 11.08 3.21 21.39 6.16 27.84 1.35 3 4.73 8.59 4.73 9.05 0 0-.56.06-.34.08l11.71.83 4.21-.85c-1.63-.06-2.76-.11-3-.17-6.6-2-12.81-11.88-15.44-26.43-1.2-6.66-1.58-15.11-1.54-33.88 0-13.75-.38-31.07-.91-38.5-3-41.09-3.28-58.18-3.1-167.28v-63.13Zm217.19 27.9q-20.12 0-46.5.36c-62 .84-66.18 1-69.11 2.78-6 3.63-6.84 6.47-6.72 22.31.13 16.73 1.44 20.85 7.33 22.92 2.63.93 19.82 1.26 69 1.32 60.29.07 83.31-.56 104.39-2.89 12.81-1.4 15.75-4.91 16.42-19.54.61-13.35-2-20.48-8.71-23.95-4.28-2.21-25.87-3.31-66.1-3.31Zm3.68 6.83c30.14 0 54.75.25 56.65.87 6.2 2 8.1 5.19 8.72 14.39 1.07 15.84-1 18.65-13.91 18.68-4.75 0-13.81.43-20.14.94s-41.91 1.2-79.09 1.53c-65.31.57-67.67.53-69.93-1.3s-2.37-2.82-2.78-13.4c-.45-11.85.51-17.46 3.4-19.86 1.29-1.07 66.85-1.84 117.08-1.85Zm-93.05 9c-1.33 0-1.81.62-2.23 2.7-.45 2.27-1.27 3.11-3.49 3.55-2.05.41-2.9 1.17-2.9 2.6 0 1.18.67 2 1.59 2 1.23 0 1.43.65.92 3-.37 1.64-.38 3.44 0 4 .69 1.11 3.89-.17 5-2 .38-.62 1.63-.23 3.19 1 3.27 2.57 6.29 2.64 6.29.14a4.74 4.74 0 0 0-1.52-3.15c-1.34-1.11-1.25-1.4.75-2.4 3.24-1.61 2.81-3.91-.93-5-2.38-.7-3.28-1.6-3.5-3.5s-1-2.65-2.56-2.87a5 5 0 0 0-.62-.06Zm31 0c-1.33 0-1.81.62-2.23 2.7-.45 2.27-1.27 3.11-3.48 3.55s-2.9 1.17-2.9 2.6c0 1.18.66 2 1.58 2 1.23 0 1.43.65.92 3a7.47 7.47 0 0 0 0 4c.69 1.11 3.9-.17 5-2 .38-.62 1.63-.23 3.19 1 3.27 2.57 6.29 2.64 6.29.14a4.7 4.7 0 0 0-1.52-3.15c-1.34-1.11-1.25-1.4.75-2.4 3.24-1.61 2.81-3.91-.93-5-2.38-.7-3.28-1.6-3.5-3.5s-1-2.65-2.56-2.87a5 5 0 0 0-.62-.06Zm35 0c-1.33 0-1.81.62-2.23 2.7-.45 2.27-1.27 3.11-3.49 3.55-2.05.41-2.9 1.17-2.9 2.6 0 1.18.67 2 1.58 2 1.24 0 1.44.65.93 3-.37 1.64-.38 3.44 0 4 .69 1.11 3.89-.17 5-2 .38-.62 1.63-.23 3.19 1 3.27 2.57 6.29 2.64 6.29.14a4.74 4.74 0 0 0-1.52-3.15c-1.34-1.11-1.25-1.4.75-2.4 3.23-1.61 2.81-3.91-.93-5-2.38-.7-3.28-1.6-3.5-3.5s-1-2.65-2.56-2.87a5.15 5.15 0 0 0-.62-.06Zm36 0c-1.33 0-1.81.62-2.23 2.7-.45 2.27-1.27 3.11-3.49 3.55-2.05.41-2.9 1.17-2.9 2.6 0 1.18.67 2 1.58 2 1.24 0 1.44.65.93 3-.37 1.64-.38 3.44 0 4 .69 1.11 3.89-.17 5-2 .38-.62 1.63-.23 3.19 1 3.27 2.57 6.29 2.64 6.29.14a4.74 4.74 0 0 0-1.52-3.15c-1.34-1.11-1.25-1.4.75-2.4 3.23-1.61 2.81-3.91-.93-5-2.38-.7-3.28-1.6-3.5-3.5s-1-2.65-2.56-2.87a5.15 5.15 0 0 0-.62-.06Zm33 0c-1.33 0-1.81.62-2.23 2.7-.45 2.27-1.27 3.11-3.49 3.55-2.05.41-2.9 1.17-2.9 2.6 0 1.18.67 2 1.59 2 1.23 0 1.43.65.92 3-.37 1.64-.38 3.44 0 4 .69 1.11 3.89-.17 5-2 .38-.62 1.63-.23 3.19 1 3.27 2.57 6.29 2.64 6.29.14a4.74 4.74 0 0 0-1.52-3.15c-1.34-1.11-1.25-1.4.75-2.4 3.24-1.61 2.81-3.91-.93-5-2.38-.7-3.28-1.6-3.5-3.5s-1-2.65-2.56-2.87a5 5 0 0 0-.62-.06Zm-147.87 67.83c-8.16 0-15 2.93-16.64 9.1-1.18 4.4-2.38 5.38-2.85 26.86-.6 27.12.24 32 7 41 6.94 9.18 5.53 9 61.62 8.47 26.18-.24 54.12 0 62.09.53 19.27 1.29 51.35.76 56.32-.93 4.17-1.42 8.93-5.73 11.5-10.42 1.41-2.59 1.62-6.65 1.52-29.24l-.12-26.23c0-6.18-2.38-16.53-14.39-16.53l-56.1-.17c-30.87-.06-69.47-.7-85.79-1.42Zm1.32 5.36c2 .05 4.68.28 8.7.66 32.27 3.08 78.44 3.83 121.39 2 15.12-.65 24.71.39 30 .15 15.21-.67 12.85 15.1 12.85 15.1l.73 18.86c.85 22.23.78 24.87-.77 28.5-2.42 5.63-5.13 7.65-12.28 9.15-7.54 1.58-18.24 1.5-47.23-.32-16.12-1-32.43-1.22-61-.74-21.45.36-42.37.69-46.5.74-9.19.1-12.92-1.63-16.44-7.65-3.79-6.46-4.91-16.91-4.13-38.66.74-20.86 1.44-23.2 7.88-26.37a12 12 0 0 1 6.77-1.39Zm28 26.79c-16.4 0-19 .43-19.35 1.33-1.13 2.93 3.3 3.89 21.27 4.6 23.16.92 99.71 1.17 108.29.36 5.5-.52 6.75-1 6.75-2.37a3.12 3.12 0 0 0-2.25-2.48c-1.24-.41-31.77-1-67.85-1.22-22.28-.16-37.07-.25-46.9-.22Zm79 28h-2.17c-9.6.16-13.23 1-13.64 3.14-.29 1.49.44 1.73 5 1.66 9.85-.16 15.27-1.26 15.64-3.16.25-1.36-.34-1.67-4.82-1.66Zm-35.35 56.92c-8.54-.14-17.73 5.35-20.75 14.52-3.13 9.47 1.51 21.7 9.92 26.14 11.63 6.14 25.06-1 28-14.86a22.93 22.93 0 0 0-5.31-20.66 16.18 16.18 0 0 0-11.94-5.1Zm-451.71 1c-5.51 0-5.84 3.66-3 32 1.06 10.44 1.15 32.79.15 37.46l-.63 3-1.9-4.21c-4.55-10.09-13.17-15.43-15.76-9.76-1.07 2.35-.5 5.76 2.75 16.47.64 2.1.48 2.32-1.18 1.67a37.56 37.56 0 0 0-7-1.3c-4.39-.47-5.45-.23-7.36 1.69a4.91 4.91 0 0 0-1.68 5.35c.69 3.41 7.1 16 10.36 18.93.9.82 1.31 1.28-.49 1.59 4.83.46 9.54.78 9.54.78l-6.22-10.8c-6.48-11.22-8.13-12.4-3.4-11.45 1.76.36 5.58.92 8.5 1.26 5.1.61 5.31.54 5.28-1.76a64.85 64.85 0 0 0-1.94-9.89l-1.92-7.5 2.25 2.78a70.57 70.57 0 0 1 5.59 9.28c1.83 3.57 3.68 6.72 4.11 7 1.44.89 4.78-4.59 5.85-9.62 2.76-12.87 2.21-35.32-1.55-62.92l-.62-4.5 3.1 2.91c4.57 4.3 10.93 17.3 13.86 28.36 2.29 8.63 2.63 12.19 3 31.53s.65 21.77 2.08 21.49c.95-.18 2.15-2.22 2.92-5 1.38-4.89 8.46-13.91 9.85-12.55 2 2-4.22 17.8-10.62 26.51l-3.53 4.82 9.53-.21.09-.1a1.22 1.22 0 0 1-.45-.07 71 71 0 0 1 3.5-6.19c7.56-12.55 10.32-27.22 5.66-30.48-3-2.07-3.88-2-8 .8l-3.44 2.38-1.14-12.61a184 184 0 0 0-3.2-21.11c-4.24-17.64-16-36-23-36Zm886.89 1.05a2.72 2.72 0 0 0-2.51 1.2c-.44.69-1 17.67-1.31 37.75l-.5 36.5-3.69-6c-5.37-8.77-10.38-13.65-13.66-13.27-3.9.45-3.84 4.12.29 20.41 1.94 7.66 3.66 16.18 3.8 18.92l.26 7.82 5.49.49v-8.11c0-2.89-1.29-10.58-2.88-17.08s-2.53-11.44-2.1-11c2 2.12 9.11 14 9.62 16 .72 2.85 3.9 3 5.35.31 1.89-3.52 3-20.93 3-48.49 0-29.67.06-29.77 5.37-16.36 6.07 15.3 9 35.82 7.56 53.82-.57 7.33-1.35 11.1-2.82 13.59-1.59 2.7-1.82 4-1 6 1.33 3.5 2.92 2.68 6.46-3.33 2.51-4.25 6.89-11 14.25-21.91 1-1.57 1.14-1.24.61 2.15-1.13 7.16-6.23 20.74-9.85 26.19l-3.53 8.16 8.3-.07 3.81-10.43c5-13.74 10-33.1 6.35-36.77a5.27 5.27 0 0 0-2.5-1.57c-1.64 0-4.6 3.61-8.93 10.89-2.32 3.91-4.29 7.11-4.36 7.11s-.2-5.31-.28-11.78a131.36 131.36 0 0 0-5.47-36.22c-2.58-8.24-8.1-19.82-10.85-22.75a6.43 6.43 0 0 0-4.22-2.2Zm-435 4.58c3.1.05 5.71 1.61 7.79 4.67a16.58 16.58 0 0 1-2.22 21.39c-2.63 2.62-4.1 3.3-7.16 3.27-5.31-.06-9-2.31-11.35-7-4.68-9.18-.27-19.19 9.66-21.93a12.14 12.14 0 0 1 3.22-.37Z" class="colorefca87 svgShape"/><path fill="#f2d0b9" d="M833.52 338.12s1.23 11.46-7.86 15.15-13.83 1.73-13.83 1.73l2.08-9.47Z" class="colorf2d0b9 svgShape"/><path fill="#e8bea1" d="M309.41 321.17a7.55 7.55 0 1 1-7.55-7.55 7.55 7.55 0 0 1 7.55 7.55Z" class="colore8a1a4 svgShape"/><path fill="#e8bea1" d="M827.43 303.55a7.55 7.55 0 1 1-7.55-7.54 7.55 7.55 0 0 1 7.55 7.54Z" class="colore8a1a4 svgShape"/><path fill="#f2d0b9" d="M312.68 347.09s7.36 12.45 17.41 12.18 12.59-3.21 12.59-3.21l-9.91-14.47s-9.51 10.45-20.09 5.49Z" class="colorf2d0b9 svgShape"/><path fill="#0f1341" d="M290.24 202.7c-3.58 0-5.31.59-9 2.39-6.3 3.08-10.92 8.36-13.69 15.67-1.41 3.69-5.21 8.62-14.29 18.52s-13.37 15.46-16.23 21.1c-3.8 7.48-3.86 7.78-3.83 18.69 0 6.1.89 20.44 1.94 31.87 1.67 18 1.77 22.48.75 33.5-2.64 28.61-10.36 49.33-32.37 86.92-16.56 28.28-21.35 42.09-20.69 59.69.35 9.21.71 10.81 4.13 18 6.66 14 22.52 27.38 42.71 35.95 3.58 1.52 7.27 3.18 8.21 3.69a22.21 22.21 0 0 0 5.5 1.53c2.94.47 4.24.17 5.79-1.33 2-1.91 2-1.89 6.31 1.85 6.73 5.89 15.92 8.32 43.19 11.44 5.43.62 5.53.69 7.86 5.61 2.13 4.51 2.24 5.42 1.17 9.67-1.82 7.24-9.54 25.52-15.92 37.69-22.48 42.91-47 66.87-94.1 92-19 10.16-24.16 13.52-31.87 20.86-17.44 16.63-25.79 33.54-24.93 50.52.68 13.63 6 23.11 16 28.65 4.85 2.69 6.18 2.95 14.83 2.95 9.5 0 15.88-1.21 32-6 9.46-2.85 19-4.74 21.67-4.3 1.79.31 1 1.79-6.26 12.22-4.56 6.53-9.21 12.85-10.34 14.05-4.23 4.51-3.55 12.91 1.44 17.59l2.45 2.31-3.16 5.59c-6.41 11.33-15.62 24.71-19.85 28.84l-4.35 4.25H163c-10.75 0-19.79-.13-21.86-.3l-.1.1-9.52.2H94.9s-4.71-.32-9.54-.78c-2.23.38-7.88.51-20.3.78l-22.85.5s-5.42.51-5.42 2.5 5.42 2.5 5.42 2.5l44 .5c67.91.77 899.5.93 930 .17l24.4-.6s2.6-.83 2.6-2.57-.1-2.5-9.61-2.78l-9.62-.28-8.29.06h-30l-5.49-.5-14.69.28-14.69.27-2.06-4.65c-4.08-9.23-7.81-12.11-28.5-22-21.83-10.47-20.86-9.27-18.06-22.22 6-27.81 6.78-30.64 9.17-33.77 1.36-1.79 3.1-6.09 3.85-9.56s2.76-12.53 4.46-20.14c4.37-19.56 6-31 6.65-47.67.92-22.69 1.61-20.73-28.5-80.81-25.19-50.29-26-52-25.85-57.48.11-4.9-.27-6.11-3-9.5-2.17-2.71-2.84-4.3-2.22-5.29 1.34-2.11 1.07-13.59-.47-20.42-7-31.09-7.08-32.53-.67-23.93C873 537 894.5 557.91 903 563.44c9.41 6.13 15.81 8.38 23.71 8.35 6.48 0 8.22-.71 15-5.85 6.37-4.8 9.77-9.72 12.18-17.65 3.46-11.39 2.39-21.21-7.62-70.36-9.37-46-11.81-56.24-16.62-69.81-3-8.56-3.6-9.38-12.38-18.06-6.68-6.62-14-12.33-26.93-20.92-14.13-9.41-18-12.5-19.13-15.15-3.06-7.33-9.22-10.33-14.13-6.88-2 1.41-2.16 1.19-4.73-7.25s-4.77-18.41-4.21-19c.14-.15 2.27.62 4.73 1.71 5.68 2.52 9.52 1.63 12.59-2.92 1.91-2.83 2.25-4.65 2.25-12.22s.32-9.32 2.23-11.9c2.1-2.85 2.44-5.51 1.72-13.41a80 80 0 0 1 1-10.23c.93-6.39.07-9.71 0-15.32-.07-5.34-2.53-8.4-5.21-11.27l-6.64-6.91c-12.18-12.68-27.52-25.8-33.61-28.75a23.35 23.35 0 0 0-9.08-2c-4.73 0-5.15.24-10.94 6.3-3.31 3.46-6.88 8.19-7.92 10.5s-2.21 4.2-2.59 4.2a7.27 7.27 0 0 1-2.6-2.14c-2.75-3.1-13.31-7.86-17.43-7.86-8.06 0-11.31 5.51-11.61 19.67-.11 5.74-.75 11.17-1.44 12.48-3.85 7.19-3 13.51 2.85 21.92 3.45 4.94 3.68 5.66 2.52 7.93-3 5.93.6 16.67 6.2 18.46 1.65.53 3.11 1 3.24 1.07s.86 3.45 1.65 7.54c1.83 9.6 4.56 17.27 8.2 23.08 2.93 4.68 12.81 12.91 17.75 14.79 2 .74 2.66 1.71 2.66 3.65 0 2.11-.35 2.49-1.75 1.91-5.84-2.39-8.56-2.58-14.63-1.06-7.08 1.77-18.5 2-33.06.55-10.19-1-10.62-.24-14.09-1.52l-.14 6.11c1.28 0 9 1.4 16.17 2.19 12.49 1.38 23.85.89 32.25-1.39 2-.55 2.27-.25 2.27 2.76 0 4.86 2.64 15.28 5 19.94 3.28 6.42 9.44 11.72 15.81 13.57 12.77 3.71 25.17 3.41 34-.83 6.69-3.21 14.33-11.34 18.18-19.32 1.85-3.85 3.46-7.14 3.56-7.3.47-.73 30.68 20.13 38.51 26.58 8.47 7 8.64 7.21 12.16 16.41 4.61 12 8.81 29.5 18.36 76.31 6.93 34 7.75 39.22 7.81 49.5 0 10-.25 12.18-2.29 16.71-2.48 5.51-10.26 13.63-14.67 15.31-4.6 1.75-11.5.52-19.34-3.46-14.52-7.36-39.16-32.65-56.19-57.67l-3.82-5.62 3-6.34c3.37-7.13 13.14-19.63 16.56-21.19 1.94-.89 3-.35 8 4 3.18 2.78 11.6 10.94 18.71 18.14s13.28 13.09 13.75 13.09c1.43 0 .91-3.36-1-6.5-1-1.65-6.15-7.77-11.42-13.61-7.32-8.1-9.85-11.65-10.72-15-.62-2.42-2.65-9.11-4.52-14.89s-3.52-11.59-3.69-12.92c-.88-7-6 .47-7.37 10.69-.39 2.9-1.09 5.52-1.58 5.81s-2.92-.83-5.42-2.52-5.85-3.06-7.46-3.06a4.67 4.67 0 0 1-4.31-2.25c-8.15-13.3-15.07-23-17.08-23.9-4.19-1.91-7.37-.36-8.6 4.18-.6 2.21-2.51 4.79-3.85 4.21-5.86-2.54-19.75-3.1-29.14-3.45-12.81-.49-16.67.68-20.5 4.16-1.93 1.75-2.26 1.74-9.5 0-8.37-2.06-19.91-.69-20.13-.75v5.37s10.1-.87 15.27.39a82.41 82.41 0 0 0 10.79 2.07 11.06 11.06 0 0 1 5.07 2 32.07 32.07 0 0 0 6.78 3.36c3.89 1.35 6.63 4.78 15.38 19.28 5.05 8.36 12.3 11.25 28.42 11.36h6l4.5 7.72c2.47 4.24 4.63 8 4.78 8.32s-1.89.4-4.55.15c-3.45-.33-7.18.27-13.08 2.14-7.43 2.35-18.13 3.38-21.65 2.09-.55-.21-2.94-.87-5.31-1.48s-8.66-4.09-14-7.73c-15.77-10.77-24.7-13.32-34.44-9.84l-3.75 1.33v7.25l2.54-1.66c3.37-2.21 11.26-2.88 16.05-1.37 2.13.67 8.82 4.52 14.87 8.54 13.81 9.18 19 11 31.5 10.93 7.26 0 10.91-.56 15.46-2.24 8.19-3 12.9-2.85 19.19.76 6.95 4 9.69 7.58 9 11.81-.64 3.9 1.24 16.48 4.72 31.72 3.56 15.61 3.61 18.48.36 23.15-5.24 7.52-16.24 14.28-28.21 17.34-14.91 3.82-38.81 2.1-54.71-3.93-7.32-2.78-15.06-8.07-23.09-15.77l-6.38-6.08-.33 8.44 4.25 4.15c6.2 6.07 19.93 13.87 30.25 17.19 28.46 9.15 56.21 5.52 75.23-9.86l6.24-5 1.58 2.41a10.76 10.76 0 0 1 1.26 6.23c-.29 3.47-.92 4.23-6.65 8.08-6.92 4.63-19.88 9.09-34 11.71-16.56 3.06-37.37 2.64-48.46-1-7.52-2.45-19.59-9.51-24.87-14.55l-4.8-4.59v9.74c.68.67 2 .76 4 2.46 2.93 2.47 14.59 8.69 20.55 11 3.43 1.3 11.76 3 19.22 4 11.06 1.41 14.87 1.49 23.81.53 19.15-2.06 40-8.4 48.21-14.69 1.87-1.43 3.76-2.2 4.21-1.72s8.45 15.94 17.75 34.37 20.55 40.25 25 48.5c9.79 18.19 10.9 23.14 10 44.33-.63 13.91-2.23 25.09-7.65 53.67-2.92 15.34-3.18 16.13-6.52 19.25-3.12 2.9-4.09 3.24-9.25 3.19-6.13-.06-14.13-2.25-20.88-5.73-5-2.59-5.4-3.92-5.4-21.09 0-6.94-.46-21.35-1-32l-.55-10.4c0-7.84-2.52-12-4.93-16.43l-5.27-8.74c-13.36-22.24-22.76-36.24-28-41.7l-4.42-4.54 6-2.2c6.43-2.34 8-3.65 6.26-5.35-.75-.74-2.86-.56-7.12.64-8.32 2.34-27.23 3.79-32.87 2.52s-6.47-.44-3 2.55l2.68 2.31-2.53 2.31c-7.82 7.31-35 48.54-37.19 56.31-.35 1.31-3.35 5.81-6.65 10l-6 7.65v7.38l4.66-4.68c5.51-5.54 12.2-15.13 15.08-21.65 3.79-8.58 23.89-38.62 33.92-50.68l4.33-5.22 8.35-.65c8.18-.64 8.39-.6 10.5 2 6 7.47 15.53 21.45 23.86 35.15 5.11 8.41 11.34 17.8 13.14 21.27 2.14 4.15 4.07 8.49 4 14.38l.25 15.83c.46 28.47 1.14 40.86 2.44 44.28a6.93 6.93 0 0 0 3.54 3.47c2.54 1 2.58 1.13 1.94 7.73-1.48 15.18-6.69 49.22-8.59 56a60.9 60.9 0 0 0-2 14.75v7.47H718.19s-366.46-.06-404 0l-72.49.07v-4.2c0-2.76-.66-4.9-1.93-6.26-1.71-1.83-5.08-13.23-5.08-17.19 0-1.3.28-1.3 2.23.07q4.49 3.13 9-.4c2-1.56 2.62-3.19 3.13-8 .85-8.23 2.5-11 12.92-21.8 6.56-6.79 8.82-9.78 8.45-11.19s3.53.11 18.15 7.41c22.85 11.43 33.5 15.71 47.69 19.17 10.59 2.58 11.39 2.63 24.44 1.61 7.43-.57 16.67-2.56 17-1.72l-.5-6.14-7 1.23c-22.93 4-39-.12-81-20.93l-26-12.88 7-2.23c13.94-4.46 24.6-11.54 36.4-24.18 15.84-17 27.81-40.76 34.67-68.9 3.87-15.87 4.21-30.34.68-28.15-.54.33-1.28 3.2-1.65 6.38-1.66 14.28-8.82 36.51-17.64 54.77-15.46 32-40.6 54-64.28 56.16-5.53.5-7.1.19-14.79-3-13.5-5.6-24.71-8.45-38.08-9.66-16.75-1.51-27.51.32-31.73 5.4-2.11 2.55-.33 3.79 3 2.08 6.93-3.58 19.87-3.69 38.73-.31 6.05 1.08 6.41 1.28 3.71 2-11.9 3.07-40.7 9.88-43.81 10.38a32.18 32.18 0 0 1-9.38-.54c-9.92-2.06-17.21-11.23-18.87-23.71a45.34 45.34 0 0 1 .9-13.39c.62-2.93 4.3-12 5.39-14.09 4.11-8 14.9-20.27 24.77-27.31 3.3-2.35 12.75-7.84 21-12.19 41.8-22.06 64.69-41.58 84.73-72.27C296 622.09 308.16 596 311.65 581l1.2-5.17 6.17 2.86c10.15 4.68 33.25 8.45 48 7.81l7.71-.34.06-5.15c-5.15 2.93-40-1.84-52.77-7.32-5.05-2.17-12.21-8.45-11-9.65.36-.35 10.68.1 22.94 1s26.45 1.63 31.54 1.63h9.25l-.16-5.92c-1.83.38-.73.44-6.06.72l-5.71.3 2.09-4.8c1.15-2.64 2.24-5 2.42-5.17s1.94.64 3.92 1.87c1.12.69 9.5 4.93 9.5 4.93l2.13 1.14c1.17.62 4.35 1 7 1.28a15.77 15.77 0 0 0 11.06-2.57l3.79-3.42a31.85 31.85 0 0 0 6.61-9.91c2.09-4.79 2.18-5.67 3.3-5.24 4.22 1.62 14.47.45 19.68.07 8.52-.61 11.05-3.58 6.64-7.54-4.24-3.81-25.87-10.46-33.39-10.79l-6.5-.29-6.31-.25a37 37 0 0 1-6 .25h-5.93l-6.54-.19-4.55.22c-3.17.61-5.32.51-7.06-.33-1.37-.66-11.72-2.39-23-3.83s-24.1-3.4-28.5-4.33l-8-1.7-.3-6.33a167 167 0 0 1 1.31-20c.88-7.52 2.05-17.49 2.59-22.16.64-5.49.65-9.2 0-10.5a73.52 73.52 0 0 1-2.63-10c-3-14.47-11.89-26.63-15.11-31.56l-1.4-2.15 5.06-5.52 6.86-6.75.56 3c1.26 6.73 9.25 20.93 14.57 25.9 7.61 7.12 14.37 9.82 25.94 10.37 15.27.72 21.54-2 26.23-11.55 2.06-4.19 2.31-6 2.18-16.23-.16-12.5-2.34-22.92-6.86-32.78-1.37-3-2.49-5.52-2.49-5.59s3.63-.13 8.06-.13l7.39.14v-5.14l-2.95.12a42.59 42.59 0 0 1-6-.26c-12-1.52-11.42-1.29-13.47-5.3s-3.61-5-7.86-5.07c-2.18 0-3.35-1.11-6.35-6-3.61-5.82-3.65-6-1.9-8.24 5.77-7.4 7.22-17 4.73-31.26-.85-4.93-1.39-9.14-1.18-9.35 1.13-1.13 11.9 6.15 17.69 12 11.09 11.11 17.37 60.16 17.36 41.65v-27.3l-3.5-6.5c-4.82-8.95-14-17.89-22.59-22l-7.12-3.54a21.19 21.19 0 0 1 1.77-4.13c5-10.11 6-25.26 2.39-35.92-3.36-9.9-12.73-20.56-22.36-25.42-5-2.52-5.73-3.3-6.78-7.18-1.5-5.49-6.11-11.08-12-14.53-3.58-2.1-6.24-2.77-12.4-3.13-1.75-.1-3.15-.16-4.35-.16Zm3.21 6a24.17 24.17 0 0 1 9.94 2.1c5.09 2.47 9.69 7.72 12 13.65.89 2.34 4.46 5.3 5.49 5.84 5.23 2.75 14.59 10.9 18.63 17.5 3.44 5.64 5.57 15.44 4.85 22.36s-3.53 17.56-4.59 17.56c-.39 0-1.28-2.59-2-5.75a139.89 139.89 0 0 0-4.82-15.08c-3-7.79-4.49-10.28-9.25-15.11-5.1-5.19-14.05-10.31-15.49-8.88-.25.25-.9 4.73-1.44 9.93-1.67 15.79-10.16 40.18-15.77 45.12-3 2.62-12.6 5.72-17.78 5.72-3.78 0-4.52.31-4.52 1.91 0 2 4.37 4.09 8.65 4.09 1.29 0 2.35.47 2.35 1s.77 7.22 1.72 14.75c2 16.26 2.33 59.24.48 71.43a110 110 0 0 1-9.35 31.47c-4 8.16-4 8.21-9.32 9.75a61.76 61.76 0 0 1-14.43 1.56c-5.26 0-9.1.41-9.1 1 0 2.2 5.21 4.31 10.64 4.31h5.55l-.66 9.11c-.37 5-2.43 20.16-4.58 33.68-5.16 32.42-5.67 39.52-3.45 48.3 1.44 5.74 1.51 7 .36 7.73-4.27 2.71-17.36-2.6-31.85-12.9-33.82-24.06-35.4-47.65-6.49-96.7 20-33.94 28.25-54.3 32-79 1.94-13 1.93-33.83 0-45.08a196.58 196.58 0 0 1-1.75-24.38l-.21-15.54 3.26-6.64c1.85-3.77 6.6-10.41 11-15.37 11.1-12.5 17.09-20.53 17.82-23.87.82-3.71 7.71-11.22 12.58-13.71a21.45 21.45 0 0 1 9.59-1.92Zm524.91 5c6.49 0 16 7.16 39.59 29.67l6.51 6.22c3 2.92 3.17 6 3.24 11a119.52 119.52 0 0 1-.64 12.57c-.65 4.68-.67 4.71-4.25 4.5-10.19-.6-14.82 2.47-17 11.24a48.29 48.29 0 0 1-2.56 7.73L842 299l-.61-2.45c-.34-1.35-1.28-6.87-2.09-12.28l-1.48-9.83 3-3c4.66-4.66 6.79-12.71 3.36-12.71-.82 0-1.5.44-1.5 1s-1.45 2.62-3.23 4.65c-6.21 7.07-14.31 8.33-22.05 3.42-5.3-3.36-12.72-12.85-15.27-19.53-2.34-6.13-4.46-5.91-8.27.84-2.83 5-8.23 10.66-10.22 10.66-.49 0-2.42-1.36-4.3-3-4.34-3.82-5.05-3.78-4.17.24a99.41 99.41 0 0 1 1.19 10.5c.62 9.28-.82 9.51-5.93.92-4.16-7-4.44-8.76-2.22-14.08.84-2 1.8-8 2.13-13.37.79-12.64 2.18-16.22 6.33-16.22 3.52 0 9.46 2.78 16 7.49 2.48 1.78 5.07 3 5.77 2.78s3.16-3.22 5.45-6.6c6.29-9.3 11.67-14.77 14.47-14.77Zm-443.57 36.41c-1.48 2-6.46 23.19-7 25.62-1.7 7.41-1.34 13.66.94 15.93 7.57 7.58 19 6 23.33 5.84 9.77-.31 11.53-2.61 17.3-3.9 6.69-1.51 10.18-7.81 10-14-.12-4-1.94-4.77-3.92-6.39s-5.43-15.28-7.86-20.6c-.22-.23-5.58-9.88-17.41-9.88-10.71-.02-15.17 7.1-15.38 7.38Zm15.4-1.2c7.91 1 10.88 3.45 13.32 10.86 1.14 3.5 3.62 14.21 6.84 16.11 3.68 2.17 3.85 2.61 2.29 6s-5.09 5.6-11.58 7.29c-5.44 1.42-13 3.46-21.43 1.75-4-.81-7.26-2.62-6.56-8.49.27-2.26 4-15.8 4.33-19.94.6-7.04 5.36-14.49 12.79-13.58Zm-78-.16 4.29 3.57c7.21 6 12.76 19.78 18.17 45.15 3.76 17.63 4 28.26.93 34.48-5.27 10.5-13.68 15-21.37 11.53-1.89-.86-2.87-.87-3.69-.06s-.3 1.93 1.95 4.17c2.57 2.57 3.83 3.07 7.89 3.07a16.13 16.13 0 0 0 8.1-2 16.21 16.21 0 0 1 4.09-2c.92 0 6.27 7.2 5.74 7.73-.19.19-4.37 1.42-9.29 2.74a123.32 123.32 0 0 0-14.76 5c-3.19 1.41-6 2.56-6.17 2.56a12.3 12.3 0 0 1-1.78-3.4c-2.28-5.46-8.47-14.75-12.84-19.27-3.89-4-4.1-4.59-5.78-15.5-1-6.23-2-12.9-2.4-14.83-.65-3.44-.56-3.55 5.13-6.55 5.5-2.9 6-3.52 10.54-12.5 6.48-12.87 9.74-23.56 10.57-34.65ZM798 252.48l3 5.68c4.72 8.79 12.5 16.1 19.19 18a22.89 22.89 0 0 0 9.36 1l3.8-.64.62 9.31c.86 13 3.48 19.81 7.65 19.81 1.94 0 3.36 9.52 1.84 11.12s.13 13.27 2.21 21.41a92.92 92.92 0 0 0 5.5 14.92c1.92 3.89 3.49 7.62 3.49 8.29 0 2.15-10 9.17-15.24 10.74a37.61 37.61 0 0 1-8.24 1.52c-4.17 0-12.31-4.16-16.41-8.39l-3.32-3.43 1.83-7.09c1.72-6.68 2-7.1 4.64-7.1 6.62 0 16.75-7.07 16.75-11.69 0-2.77-1-2.89-4.12-.51-2.41 1.81-8.48 4.56-12.64 5.72-8 2.21-23.27-8.64-27.29-19.33-3.5-9.32-5.92-22.35-6.95-37.46-1.36-19.95-1.38-19.72 1-19.72 3.73 0 7.83-3 10.56-7.6Zm-64.37 19.45-6.11.1s-11.21.28-11.14 20.13c0 5.43.6 10.63 1.5 13.1 1.46 4 1.44 4.16-1.32 7.24-5.2 5.82-4.7 12.26 1.11 14.45l.17.07.78-.15s1.37 1.58 7.85 1.93l3.87-.64c2.13-.35 5-.85 6.46-1.11l2.58-.48 6.9-1.83c.71-1.76 2.32-1.77 5.93-2.29 1.22-.18 2.88-2 4.25-4.75 1.89-3.75 2.25-6.08 2.25-14.57 0-15-3.73-25.73-10.08-29l-.65-.35Zm-2.26 6.38c1.32 0 3 0 5.27.09 5 .13 10 .68 11 1.21 4.07 2.18 7 31.57 3.45 35.09-.62.61-4.22 2.24-8 3.62-9.45 3.43-23.37 4.14-23.37 1.19 0-1.35 4.93-5.88 9.1-8.36 1.86-1.11 3.54-2.86 3.74-3.88.3-1.55-.12-1.78-2.49-1.39-1.56.27-3.48.66-4.26.88-3.78 1.07-4.16-20.87-.45-25.78 1.55-2.08 2.06-2.62 6.01-2.67Zm44.31 2.48c.58-.06 1.14 1 1.55 3.16a32.92 32.92 0 0 1 .28 7.25l-.34 4-1.87-3.64a10.31 10.31 0 0 1-1.18-7.25c.42-2.31.99-3.46 1.56-3.52Zm84.41 3c4.36.07 6.94 2.2 6 5.27s-4.46 6.65-8.12 8.21a23 23 0 0 1-3.49 1.3c-.16 0-1.28-.55-2.5-1.13-2-.95-2.15-1.61-1.62-5.69.74-5.89 2-7.21 7.75-7.86a17 17 0 0 1 1.98-.08Zm-59.35 4.87c-.15 0-.26 0-.29.07-1.73 2.9-5.75 11.72-5.75 12.62 0 .64 1 1.88 2.22 2.73 3.72 2.6 8 .46 9.76-4.88 1.39-4.19 0-8.18-3.46-9.74a9 9 0 0 0-2.48-.8Zm-489.66 12.57c-.56 0-.81.39-1.09 1.13-.85 2.22 2.67 8.48 5.59 9.93 3.14 1.56 7.92-.08 9.33-3.19 1.63-3.58.36-5.44-3.71-5.44a21.9 21.9 0 0 1-7.07-1.47 9 9 0 0 0-3.05-.96Zm550.48.77c1.14 0 1.15 1 1.13 4.89 0 2.9-.58 6.4-1.28 7.77-1.4 2.79-3.87 3.38-7.89 1.88-2.67-1-2.93-1.59-4.35-9.88l-.6-3.5 4.36-.09a40.2 40.2 0 0 0 7.07-.77 8.06 8.06 0 0 1 1.56-.3ZM290 346.57l2.82 2.7c1.56 1.49 4.63 6.17 6.83 10.4l4 7.69-2.47 1.13c-3 1.36-3.34 6-.9 12.07 1.9 4.74 1.4 5.94-5.89 14.35-2.74 3.16-5.29 5.75-5.66 5.75s-.29-3 .18-6.75.89-15.88 1-27Zm570.51 5.36c2.86.15 5.82 3.13 6.58 6.91 1.51 7.57-12.65 25.33-22.55 28.27-5.06 1.51-21.6 2.05-24.84.82-4-1.53-10.21-6.78-12.43-10.57-2.43-4.14-5.52-15-5.56-19.45 0-1.54.58-2.25 1.87-2.25a3.55 3.55 0 0 1 3.49 4.68c-1.21 4.61 7.88 14.72 16 17.83 11.48 4.38 30.57-2.8 36.15-13.6 1.29-2.5 1.24-3.25-.51-7.34l-2-4.55 2.52-.64a4.59 4.59 0 0 1 1.28-.11Zm-514.3 6.89c2.21 0 3 .94 4 2.81a24.24 24.24 0 0 0 3.89 5.25c4.83 4.67 11.62 29.36 11.62 42.23 0 7.1-2.44 14.75-5.91 18.45-2.8 3-3.16 3.1-11.23 3-9.24-.07-17.45-1.9-22.49-5-7.56-4.67-13.39-13.55-18.86-28.71-3-8.39-3.07-9.2-.5-9.2s2.52-.69-.49-7.15c-1.37-2.94-2.5-6-2.5-6.86 0-1.82 15.07-7.88 30.07-12.07 6.57-1.83 10.19-2.75 12.4-2.75Zm-8.52 10.34c-2 0-1.64 6.34.54 10.55 2.09 4 4 3.27 3.75-1.48s-2.36-9.07-4.29-9.07Zm-7.71 4.5c-1.64 0-1.42 2.88.63 8.25 1.28 3.37 3.1 3.6 3.1.4 0-3.82-2.08-8.65-3.71-8.65Zm-12.4 2c-2.46 0-2.35 1.43.59 7.75 4 8.59 7.25 6.11 3.48-2.65-1.52-3.54-2.77-5.1-4.07-5.1ZM286 411.83l2.23 2.66c5.49 6.56 11.39 22.06 13.9 36.51 1.43 8.29 1.41 9.57-.41 20.22-1.07 6.26-2.24 15.58-2.61 20.73l-.65 9.35-2.33-2.3c-4.83-4.83-5.94-1.53-1.88 5.57 1.38 2.42 2.39 4.51 2.24 4.65a64 64 0 0 1-8.6-2.16c-8.54-2.47-11.26-2.39-9 .28 4.54 5.48 31.4 12.56 59.86 15.8 7.43.84 15.87 1.82 18.75 2.17l5.25.65v8.11c0 9.13-2.16 20.7-4.48 24.25-1.94 3-3.48 3-36.5-.22-54.46-5.22-61.8-7.11-66.89-17.27-3.88-7.74-3.52-19.61 1.48-49.15 2.05-12.09 5.41-39.06 5.41-43.42 0-.66 1.78-2 4-2.95 7.14-3.15 15.15-14.91 18.59-27.3Zm549.4 22.47c.46 0 1.14.66 2.46 2.07a81.31 81.31 0 0 1 6.89 9.79 94.29 94.29 0 0 0 6.22 9.17c1.93 2.17 1.93 2.18-.94 3.66-3.57 1.85-11.55 10.27-13.74 14.51-.9 1.74-2 3.1-2.36 3s-5.27-.93-10.83-1.91c-13.66-2.39-15.27-3.37-20.77-12.75S792.08 447.5 786 444.55c-3.27-1.59-4.13-2.43-3.3-3.27 1.83-1.83 19.69-1.95 31.4-.21 5.88.87 9.29 1.92 11.74 1.92 4.19 0 6.76-.23 6.82-2.81 0-1.52 1.52-3.82 1.91-4.81.26-.7.48-1.08.83-1.07Zm43.94 22.7a49.06 49.06 0 0 1 2.28 6.53c1 3.36 1.77 6.1 1.68 6.1s-1.57-1.13-3.3-2.49c-3-2.37-3.1-2.66-2.12-6.53.53-2.08 1.14-3.64 1.41-3.64Zm-19.87 3.95c1.77-.09 3.63 1 7.13 3.63l2.4 1.82-4.24 3.83c-5 4.52-12.64 14.95-14.17 19.34-.6 1.71-1.38 3.1-1.73 3.07s-2.8-3.14-5.42-6.94l-4.77-6.91 7.77-7.84c4.27-4.32 9-8.47 10.51-9.23a6.15 6.15 0 0 1 2.52-.78ZM368.7 527.49l22.75.44 22.75.44 10.5 3.63 10.5 3.67-9.5-.67c-17.21-1.22-17.53-1.19-17.25 1.43.47 4.36-6.24 13.85-11.84 16.75-5.16 2.66-10 1.69-20.8-4.19l-7.09-3.86v-17.64ZM237.55 799.66a15.62 15.62 0 0 1 6 1.36c1.46.74 7.7 3.75 13.86 6.68l11.2 5.34-4.2 3.48c-7.12 5.88-16.66 16.42-18.71 20.64a39.12 39.12 0 0 0-2.73 9.51l-.78 5.49-4 .17c-9.22.4-16.43-3.09-21.95-10.61-4.91-6.69-4.87-11 .13-15.34 3.74-3.27 10.79-13.39 15.32-22 2.23-4.19 2.88-4.72 5.86-4.72Zm640.32 3.18 4.67 2.08a39.21 39.21 0 0 0 12.46 2.53c4.27.26 7.76.52 7.73.58l-1.87 7.13-1.85 7-4.88.19c-5.27.21-11.65-1.7-14.91-4.47-1.76-1.49-2-2.65-1.67-8.39Zm-1 21.31a20.08 20.08 0 0 1 5.3 2.06 21.63 21.63 0 0 0 10.29 2.45h5.44l-.59 4.25c-.33 2.33-.9 6.73-1.27 9.75s-1.16 5.83-1.77 6.23c-1.61 1.08-4.59.82-9-.8-5.11-1.87-6.34-3-8.68-7.84-1.58-3.26-1.84-5.21-1.31-9.85.36-3.19 1-6 1.35-6.22a.41.41 0 0 1 .27-.03Zm-4 21.54 2 2.5c2.6 3.32 6.67 5.33 13.19 6.53 3.58.66 6.23.65 8 0 2-.77 3.4-.65 5.63.5 1.62.83 2.94 1.77 2.94 2.07a34.14 34.14 0 0 1-2.57 4.94c-1.66 2.82-2.35 5.12-1.94 6.43.79 2.49 3.17 2.66 4 .28a24 24 0 0 1 3.47-5.23l2.89-3.48 6 2.89 6 2.88-4.25 2.69c-4 2.55-8.09 7.06-12 13.24l-1.72 2.75h-18c-13.54 0-18.11-.31-18.4-1.25-1.34-4.35-1.34-7.44 0-15.76.83-5.13 2.23-12.17 3.1-15.64Zm-657.25 4.94 4.16 3c2.28 1.65 5.37 3 6.86 3 2.57 0 2.74.31 3.32 5.83a46.4 46.4 0 0 0 1.2 7.37c.49 1.29-1 1.64-9.72 2.24-5.67.39-12 1.08-14.06 1.52s-3.75.6-3.75.31a55.29 55.29 0 0 1 3.51-6.29 118.19 118.19 0 0 0 6-11.39Zm712 20.42c6.14-.23 16 6.68 16 11.64 0 1.87-.76 2-16 2-8.8 0-16-.4-16-.89 0-1.78 12-11.95 14.82-12.57a7.46 7.46 0 0 1 1.26-.18Zm-697.85 6.63c5.85 0 6.85.71 6.85 5.06 0 1.83-.94 1.92-19 1.92-10.45 0-19-.4-19-.89.09-2.77 16.98-6.05 31.23-6.09Z" class="color483613 svgShape"/></svg>