<svg xmlns="http://www.w3.org/2000/svg" enable-background="new 0 0 2500 2500" viewBox="0 0 2500 2500"><path fill="#c59270" d="M1908.88,362.82l17.62,113.17c4.3,29.37-15.98,56.61-45.35,60.91L1750.6,556
			c-29.37,4.3-56.61-15.98-60.91-45.35l-17.62-113.17c-4.29-29.33,15.99-56.57,45.36-60.87l130.56-19.11
			C1877.35,313.2,1904.59,333.49,1908.88,362.82z" class="color8670c5 svgShape"/><path fill="#fff" d="M1853.12,393.34c-1.6,3.58-5.81,5.17-9.37,3.54l-23.54-10.62c-3.63-1.64-7.69-1.19-10.9,1.21
					c-3.18,2.4-4.73,6.18-4.15,10.13l12.09,75.34c1.95,13.35-9.83,26.13-26.36,28.54c-16.5,2.42-31.46-6.45-33.41-19.8
					c-1.95-13.35,9.83-26.13,26.33-28.54c5.82-0.85,11.46-0.29,16.41,1.37l-9.09-54.86c-1.34-9.14,2.27-17.93,9.64-23.5
					c7.4-5.57,16.84-6.64,25.28-2.82l23.52,10.62C1853.15,385.57,1854.74,389.78,1853.12,393.34z" class="colorffffff svgShape"/><path fill="#fff" d="M1130.39,705.08c15.41-21.27-12.58-36.67-12.58-36.67s31.3-7.69,25.73-34.38
										c-3.6-17.28-35.27-14.75-35.27-14.75s12.36-2.69,25.57-6.39c11.48-3.22,18.48-14.77,16.13-26.46
										c-0.03-0.13-0.05-0.26-0.08-0.4c-2.28-11.46-12.86-19.38-24.49-18.25c-12.87,1.25-24.6,2.85-24.6,2.85
										c30.7-17.96,24.07-53.87-16.63-44.23c-27.05,6.41-145.57,4.5-145.57,4.5l-51.9-10.3
										c-25.03,15.79-131.99,16.53-131.99,16.53l20.18,208.42c0,0,124.76,2.98,158.43,3.27
										C980.33,749.22,1114.97,726.35,1130.39,705.08z" class="colorffffff svgShape"/><path fill="#0f1341" d="M934.41,752.39c-0.39,0-0.76,0-1.13,0c-33.31-0.29-157.23-3.24-158.48-3.27c-1.81-0.04-3.3-1.43-3.47-3.23
										l-20.18-208.41c-0.1-1,0.23-1.99,0.9-2.74c0.67-0.75,1.63-1.17,2.63-1.18c1.06-0.01,106.22-0.91,130.11-15.98
										c0.77-0.49,1.7-0.66,2.6-0.48l51.58,10.24c6.86,0.1,118.74,1.66,144.37-4.41c22.73-5.38,34.9,2.85,38.7,12.35
										c3.89,9.7,0.34,21.04-8.71,30.2c3.57-0.41,7.6-0.85,11.73-1.25c13.49-1.31,25.68,7.77,28.34,21.11l0.09,0.45
										c2.69,13.41-5.5,26.85-18.68,30.55c-1.71,0.48-3.41,0.94-5.06,1.38c7.95,2.24,15.45,6.73,17.3,15.59
										c4.09,19.61-9.71,31.11-21.4,36.19c4.68,3.78,10.63,9.96,12.42,17.95c1.49,6.66-0.12,13.31-4.78,19.74c0,0,0,0,0,0
										C1116.43,730.42,979.62,752.39,934.41,752.39z M778.13,742.04c19.66,0.47,124.94,2.93,155.21,3.2
										c51.1,0.44,180.57-23.51,194.16-42.26c3.45-4.76,4.63-9.33,3.6-13.96c-2.3-10.34-14.89-17.42-15.01-17.49
										c-1.28-0.71-2-2.14-1.81-3.59c0.19-1.46,1.26-2.65,2.68-3c1.14-0.28,27.87-7.23,23.09-30.18
										c-2.87-13.77-31.22-11.94-31.49-11.92c-1.84,0.16-3.54-1.18-3.82-3.04c-0.27-1.86,0.94-3.61,2.78-4.01
										c0.12-0.03,12.42-2.71,25.36-6.34c9.59-2.69,15.56-12.49,13.59-22.31c0,0-0.08-0.4-0.08-0.4
										c-1.94-9.73-10.84-16.35-20.64-15.39c-12.65,1.22-24.35,2.82-24.46,2.83c-1.71,0.23-3.31-0.76-3.86-2.37
										c-0.56-1.61,0.1-3.39,1.57-4.25c15.04-8.8,19.64-21.56,16.41-29.62c-3.45-8.59-15.1-11.68-30.42-8.05
										c-27.17,6.44-141.59,4.67-146.45,4.59c-0.22,0-0.43-0.03-0.64-0.07l-50.56-10.03c-24.86,13.91-109.2,15.99-128.7,16.29
										L778.13,742.04z M1130.39,705.08h0.03H1130.39z" class="color000000 svgShape"/><path fill="#fff" d="M1100.79,570.62c0,0-55.94,12.02-87.76,10.43" class="colorffffff svgShape"/><path fill="#0f1341" d="M1019.25,584.78c-2.21,0-4.35-0.05-6.4-0.15c-1.97-0.1-3.49-1.78-3.39-3.75c0.1-1.97,1.75-3.48,3.75-3.39
									c31,1.55,86.29-10.24,86.84-10.36c1.93-0.41,3.83,0.82,4.24,2.74c0.42,1.93-0.81,3.83-2.74,4.25
									C1099.39,574.58,1051.55,584.78,1019.25,584.78z" class="color000000 svgShape"/><path fill="#fff" d="M1108.27,619.27c0,0-38.36,9.96-83.79,6.57" class="colorffffff svgShape"/><path fill="#0f1341" d="M1043.95,630.12c-6.35,0-12.96-0.22-19.75-0.72c-1.97-0.15-3.45-1.86-3.3-3.83c0.14-1.97,1.89-3.43,3.83-3.3
									c44.25,3.3,82.25-6.36,82.63-6.46c1.93-0.49,3.86,0.65,4.36,2.56s-0.65,3.86-2.56,4.36
									C1107.81,623.08,1080.19,630.12,1043.95,630.12z" class="color000000 svgShape"/><path fill="#fff" d="M1117.8,668.4c0,0-42.39,11.1-79.48,7.43" class="colorffffff svgShape"/><path fill="#0f1341" d="M1054.46,680.16c-5.5,0-11.04-0.23-16.49-0.77c-1.97-0.19-3.4-1.95-3.2-3.91c0.2-1.97,1.99-3.41,3.91-3.2
									c36.02,3.57,77.81-7.22,78.23-7.33c1.9-0.5,3.86,0.64,4.36,2.55c0.5,1.91-0.65,3.86-2.56,4.36
									C1117.21,672.25,1086.6,680.16,1054.46,680.16z" class="color000000 svgShape"/><path fill="#f9a063" d="M2147.78,1066.51L940.95,797.04c-14.39-3.21-23.45-17.48-20.24-31.87l69.83-312.72
								c3.21-14.39,17.48-23.45,31.87-20.24l1206.82,269.47c14.39,3.21,23.45,17.48,20.24,31.87l-69.83,312.72
								C2176.43,1060.67,2162.17,1069.73,2147.78,1066.51z" class="colorc2f963 svgShape"/><path fill="#fff" d="M1979.44,893.09c-35.4-37.64-33.57-97.07,4.08-132.46c37.64-35.4,97.07-33.57,132.46,4.08
									c35.4,37.65,33.57,97.07-4.08,132.47S2014.83,930.74,1979.44,893.09z M2081.29,797.32c-17.41-18.52-46.64-19.42-65.16-2
									s-19.42,46.64-2.01,65.16c17.41,18.52,46.64,19.42,65.16,2.01C2097.8,845.07,2098.7,815.84,2081.29,797.32z" class="colorffffff svgShape"/><path fill="#fff" d="M1923.76,945.44c-9.01-9.58-8.54-24.65,1.04-33.65l55.67-52.35c9.58-9.01,24.65-8.54,33.65,1.04
									c9.01,9.58,8.54,24.65-1.04,33.65l-55.67,52.35C1947.84,955.48,1932.77,955.02,1923.76,945.44z" class="colorffffff svgShape"/><polygon fill="#fff" points="1166.99 1305.62 1190.14 1537.25 992.16 1493.84 972.25 1315.39" class="colorffffff svgShape"/><path fill="#0f1341" d="M1190.15,1540.83c-0.25,0-0.51-0.03-0.76-0.08l-197.99-43.42c-1.5-0.33-2.62-1.57-2.79-3.1l-19.9-178.45
									c-0.11-0.98,0.19-1.96,0.83-2.71c0.64-0.75,1.56-1.2,2.54-1.25l194.73-9.76c1.95-0.07,3.55,1.32,3.74,3.21l23.16,231.63
									c0.12,1.14-0.32,2.26-1.18,3.03C1191.86,1540.51,1191.01,1540.83,1190.15,1540.83z M995.43,1490.89l190.67,41.81
									l-22.33-223.34l-187.54,9.4L995.43,1490.89z" class="color000000 svgShape"/><path fill="#ed7d31" d="M1352.36,1584.28c-33.37-70.75-499.28-170.88-579.38-89.44c-121.1,123.12-202.16,570.16-202.16,570.16
									c-9.74,67.71,648.98,162.5,658.73,94.78C1229.54,2159.77,1417.09,1721.5,1352.36,1584.28z" class="colorf6538a svgShape"/><path fill="#ed7d31" d="M868.86,1465.46c0,0-271.84-205.65-265.83-399.89c6.01-194.24,238.32-281.68,238.32-281.68
									l-55.58-293.64c0,0-416.83,284.73-442,554.3c-31.26,334.87,181.56,553.07,361.78,663.2S868.86,1465.46,868.86,1465.46z" class="colorf6538a svgShape"/><path fill="#fff" d="M963.34,1351.65c-35.07-24.96-61.76-60.51-72.48-101.73c-24.79-95.47,36.02-190.84,137.88-217.33
									c78.77-20.47,138.73,23.47,176.38,83.26c0,0,36.35,30.46,47.17,40.85c4.02,3.87,6.94,9.25,7.11,14.83
									c0.2,5.78-3.23,10.95-6.53,15.68c-3.03,4.35-6.05,8.71-9.12,13.06c26.16,115.12-26.94,160.7-115.6,183.73
									c-15.75,4.12-31.7,6.02-47.51,5.95" class="colorffffff svgShape"/><path fill="#0f1341" d="M1081.46,1393.52c-0.28,0-0.55,0-0.83,0c-1.98-0.01-3.57-1.62-3.56-3.59c0.01-1.97,1.61-3.56,3.57-3.56
									c0.35,0,0.54,0,0.81,0c15.57,0,30.97-1.96,45.8-5.84c101.81-26.44,135.61-80.11,113.02-179.48
									c-0.22-0.99-0.02-2.02,0.56-2.85c3.01-4.27,5.98-8.55,8.95-12.82c3.47-4.98,6.2-9.27,6.05-13.73
									c-0.13-4.26-2.38-8.88-6.01-12.38c-10.61-10.19-46.63-40.38-46.99-40.69c-0.28-0.24-0.53-0.52-0.73-0.84
									c-25.57-40.61-82-105.22-172.46-81.7c-100.13,26.05-159.57,119.59-135.32,212.97c10.1,38.85,35.34,74.26,71.09,99.71
									c1.61,1.14,1.98,3.38,0.84,4.99c-1.15,1.61-3.38,1.98-4.98,0.84c-37.11-26.42-63.35-63.26-73.86-103.74
									c-25.26-97.26,36.43-194.63,140.44-221.69c94.53-24.57,153.26,42.05,180.01,84.34c4.31,3.62,36.65,30.78,46.92,40.65
									c5.03,4.83,8.02,11.13,8.21,17.3c0.25,7.19-4.04,13.34-7.17,17.83c-2.81,4.05-5.51,7.92-8.21,11.77
									c28.96,130.38-48.08,168.13-118.54,186.43C1113.65,1391.48,1097.64,1393.52,1081.46,1393.52z" class="color000000 svgShape"/><path fill="#0f1341" d="M1031.72,1270.03c0,0,70.49,47.27-15.04,140.67c0,0,86.24,151.25-54.38,193.97c0,0,15.13,140.62-185.12,119.26
									c-200.25-21.36-255.43-106.8-257.21-201.14c-1.78-94.34,56.96-202.03,204.7-167.32c0,0,1.78-47.17,56.96-62.3
									c0,0-72.09-71.2-32.04-170.88c20.95-52.14,63.23-96.92,105.4-132.78c45.86-39,102.05-74.94,162.91-82.99
									c19.05-2.52,48.55-4.39,65.06,7.46c25.85,18.55,49.14,37.23,62.38,67.24c5.79,13.12,9.44,27.57,7.62,41.79
									c-3.02,23.56-20.3,42.67-38.53,57.9c-11.78,9.84-24.94,19.62-29.99,34.11c-4.73,13.56-1.25,28.83,5.52,41.49
									s16.57,23.39,25.46,34.68c3.19,4.05,6.45,8.85,5.55,13.93c-1.12,6.34-8.59,9.88-14.97,9.03c-6.38-0.85-11.85-4.84-17-8.7
									c-14-10.47-27.99-20.95-41.99-31.42c-3.33-2.49-6.92-5.08-11.07-5.36s-8.8,2.89-8.42,7.04" class="color000000 svgShape"/><path fill="#fff" d="M1096.83,1204.46c0,0-58.89-66.59-93.03-11.63c-34.13,54.96,10.15,109.16,72.24,109.51" class="colorffffff svgShape"/><path fill="#0f1341" d="M1076.04,1305.92c-0.01,0-0.01,0-0.02,0c-34.56-0.2-64.98-16.52-79.38-42.59c-12.39-22.44-10.93-48.14,4.13-72.38
								c8.89-14.31,20.25-22.14,33.76-23.28c31.75-2.66,63.64,32.91,64.98,34.43c1.31,1.48,1.17,3.74-0.31,5.04
								c-1.48,1.31-3.73,1.17-5.05-0.31c-0.31-0.35-30.85-34.41-59.04-32.04c-11.13,0.94-20.64,7.65-28.27,19.93
								c-13.63,21.94-15.03,45.08-3.94,65.15c13.15,23.81,41.19,38.72,73.17,38.9c1.97,0.01,3.56,1.62,3.55,3.59
								C1079.61,1304.33,1078.01,1305.92,1076.04,1305.92z" class="color000000 svgShape"/><path fill="#fff" d="M1056,1212.02c-9.18,4.54-15.72,14-16.73,24.19c-1.01,10.19,3.56,20.75,11.67,26.99" class="colorffffff svgShape"/><path fill="#0f1341" d="M1050.93,1266.78c-0.76,0-1.53-0.24-2.18-0.74c-9.04-6.97-14.17-18.81-13.04-30.18c1.12-11.37,8.47-21.98,18.7-27.04
								c1.78-0.88,3.92-0.15,4.79,1.62c0.88,1.77,0.15,3.91-1.62,4.79c-8.08,3.99-13.87,12.37-14.76,21.33
								c-0.89,8.97,3.16,18.31,10.29,23.81c1.56,1.2,1.85,3.45,0.65,5.01C1053.07,1266.3,1052.01,1266.78,1050.93,1266.78z" class="color000000 svgShape"/><path fill="#fff" d="M1180.66,1120.87c-6.2,0.22-12.31,2.45-17.02,6.21c-4.72,3.77-8.01,9.04-9.18,14.71" class="colorffffff svgShape"/><path fill="#0f1341" d="M1154.46,1145.36c-0.24,0-0.48-0.02-0.73-0.08c-1.93-0.4-3.18-2.29-2.78-4.22c1.34-6.51,5.05-12.47,10.45-16.78
							c5.34-4.26,12.13-6.75,19.13-6.99c1.87-0.06,3.63,1.47,3.7,3.45c0.07,1.97-1.47,3.63-3.45,3.7
							c-5.39,0.19-10.83,2.17-14.92,5.44c-4.09,3.27-6.9,7.76-7.91,12.64C1157.61,1144.2,1156.12,1145.36,1154.46,1145.36z" class="color000000 svgShape"/><ellipse cx="1186.09" cy="1152.62" fill="#0f1341" class="color000000 svgShape" rx="11.78" ry="16.89" transform="rotate(-36.768 1185.979 1152.549)"/><g fill="#0f1341" class="color000000 svgShape"><path fill="#fff" d="M1219.11,1246.39c-4.73,8.67-12.78,15.47-22.12,18.68c-9.34,3.21-19.88,2.78-28.93-1.16" class="colorffffff svgShape"/><path d="M1184.05,1270.78c-5.97,0-11.95-1.2-17.43-3.58c-1.81-0.79-2.64-2.89-1.85-4.7c0.79-1.81,2.89-2.64,4.71-1.85
							c8.24,3.59,17.84,3.97,26.35,1.05c8.5-2.92,15.84-9.12,20.14-17.01c0.95-1.73,3.1-2.38,4.85-1.43
							c1.73,0.94,2.37,3.12,1.43,4.85c-5.15,9.44-13.93,16.86-24.1,20.35C1193.63,1270.01,1188.84,1270.78,1184.05,1270.78z" class="color000000 svgShape"/></g><g fill="#0f1341" class="color000000 svgShape"><line x1="1335.72" x2="1821.14" y1="646.29" y2="765.25" fill="#fff"/><path d="M1821.15,772.4c-0.57,0-1.14-0.07-1.71-0.21l-485.42-118.97c-3.84-0.94-6.18-4.81-5.24-8.64
							c0.94-3.84,4.83-6.18,8.64-5.24l485.42,118.97c3.84,0.94,6.18,4.81,5.24,8.64C1827.28,770.22,1824.36,772.4,1821.15,772.4z" class="color000000 svgShape"/></g><g fill="#0f1341" class="color000000 svgShape"><line x1="1560.96" x2="1799.29" y1="783.9" y2="842.31" fill="#fff"/><path d="M1799.29,849.46c-0.57,0-1.14-0.07-1.71-0.21l-238.32-58.41c-3.84-0.94-6.18-4.81-5.24-8.65
							c0.94-3.84,4.83-6.18,8.64-5.24l238.32,58.41c3.84,0.94,6.18,4.81,5.24,8.65C1805.43,847.27,1802.51,849.46,1799.29,849.46z" class="color000000 svgShape"/></g><g fill="#0f1341" class="color000000 svgShape"><path fill="#fff" d="M856.44,531.79c35.04-11.24,138.69-83.21,163.55-56.31c50.26,54.36-76.82,113.92-76.82,113.92" class="colorffffff svgShape"/><path d="M943.18,592.98c-1.34,0-2.63-0.76-3.24-2.06c-0.84-1.79-0.07-3.92,1.72-4.75c0.78-0.36,78.03-37.02,85.89-77.25
								c2.17-11.11-1.16-21.25-10.18-31.01c-15.55-16.83-72.06,13.08-113.3,34.91c-19.18,10.15-35.74,18.92-46.53,22.38
								c-1.89,0.61-3.9-0.43-4.5-2.31c-0.6-1.88,0.43-3.89,2.31-4.5c10.19-3.27,26.49-11.9,45.38-21.89
								c48.09-25.45,102.6-54.31,121.9-33.45c10.53,11.39,14.55,23.92,11.95,37.24c-8.56,43.78-86.55,80.79-89.87,82.35
								C944.2,592.87,943.69,592.98,943.18,592.98z" class="color000000 svgShape"/></g><g fill="#0f1341" class="color000000 svgShape"><path fill="#fff" d="M1900.64,1370.75l13.96-94.47c0,0-31.04-64.15-16.8-132.42c16.81-80.59,64.59-81.57,64.59-81.57
								s25.74-156.84,57.45-161.12c31.71-4.28,27.31,65.65,26.76,80.87s-3.58,62.52-3.58,62.52s51.62-16.75,52.15,35.91
								c0,0,44.49-0.42,40.58,50.86c0,0,30.43,4.78,27.31,56.9c-3.13,52.12-64.5,112.72-82.84,123.07
								c-18.33,10.35-39.79,12.17-39.79,12.17l-2.28,72.66L1900.64,1370.75z" class="colorffffff svgShape"/><path d="M2038.15,1399.7c-0.22,0-0.43-0.02-0.65-0.06l-137.51-25.38c-1.89-0.35-3.17-2.13-2.89-4.04l13.8-93.4
								c-4.05-8.78-30.13-68.87-16.6-133.69c14.96-71.71,53.81-82.5,65.01-84.13c4.3-25.4,28.08-157.06,60.05-161.38
								c6.46-0.88,12.09,0.82,16.72,5.04c15,13.67,15.28,50.54,14.18,77.09l-0.1,2.41c-0.44,12.18-2.49,45.19-3.27,57.72
								c8.17-1.72,24.68-3.61,37.06,5.29c8.98,6.46,13.91,17.19,14.68,31.92c6.19,0.63,19.29,3.2,29.1,13.69
								c8.49,9.08,12.44,21.8,11.75,37.85c8.36,2.85,29.84,14.62,27.13,59.8c-3.18,53.1-64.14,114.39-84.65,125.97
								c-14.78,8.35-31.26,11.32-38.06,12.25l-2.19,69.58c-0.03,1.04-0.52,2.02-1.33,2.67
								C2039.76,1399.43,2038.96,1399.7,2038.15,1399.7z M1904.68,1367.86l130.03,23.99l2.15-68.5c0.06-1.81,1.46-3.29,3.27-3.45
								c0.21-0.02,20.93-1.9,38.33-11.72c19.02-10.74,78.04-70.45,81.03-120.17c2.9-48.32-24.02-53.11-24.29-53.16
								c-1.84-0.29-3.15-1.94-3.01-3.8c1.17-15.34-2.07-27.22-9.61-35.33c-10.78-11.57-27.06-11.68-27.38-11.68c0,0-0.01,0-0.02,0
								c-1.96,0-3.56-1.58-3.58-3.54c-0.14-14.04-4.1-23.97-11.78-29.51c-13.76-9.92-35.47-3.1-35.69-3.04
								c-1.13,0.36-2.36,0.14-3.3-0.58c-0.93-0.73-1.45-1.87-1.37-3.05c0.03-0.47,3.03-47.43,3.57-62.42l0.1-2.44
								c0.6-14.47,2.41-58.51-11.85-71.51c-3.03-2.76-6.62-3.82-10.95-3.24c-21.2,2.86-44.61,98.53-54.4,158.16
								c-0.28,1.7-1.73,2.96-3.45,2.99c-1.82,0.05-45.2,2.21-61.17,78.72c-13.82,66.23,16.21,129.5,16.52,130.13
								c0.31,0.64,0.42,1.37,0.32,2.08L1904.68,1367.86z" class="color000000 svgShape"/><path fill="#fff" d="M1962.39,1062.3c0,0-0.4,53.09-2.14,58.55c-4.38,13.71-23.14,19.15-23.14,19.15" class="colorffffff svgShape"/><path d="M1937.12,1143.57c-1.55,0-2.97-1.01-3.43-2.58c-0.55-1.89,0.53-3.88,2.43-4.43c0.17-0.05,17-5.1,20.73-16.81
								c1.09-3.6,1.81-35.78,1.97-57.49c0.01-1.97,1.61-3.55,3.57-3.55c0.01,0,0.02,0,0.03,0c1.97,0.01,3.56,1.63,3.55,3.6
								c-0.07,8.96-0.49,53.93-2.31,59.61c-4.9,15.35-24.71,21.25-25.55,21.5C1937.78,1143.52,1937.45,1143.57,1937.12,1143.57z" class="color000000 svgShape"/><path fill="#fff" d="M2043.02,1044.56c0,0-6.99,23.75-15,42.03" class="colorffffff svgShape"/><path d="M2028.02,1090.16c-0.48,0-0.96-0.1-1.43-0.3c-1.81-0.79-2.63-2.9-1.84-4.71c7.83-17.86,14.78-41.37,14.85-41.6
								c0.56-1.89,2.54-2.98,4.44-2.42c1.9,0.56,2.98,2.54,2.42,4.44c-0.29,0.98-7.14,24.18-15.15,42.45
								C2030.71,1089.37,2029.4,1090.16,2028.02,1090.16z" class="color000000 svgShape"/><path fill="#fff" d="M2095.17,1080.47c0,0-3.19,25.86-19.75,45.12" class="colorffffff svgShape"/><path d="M2075.42,1129.16c-0.83,0-1.65-0.28-2.33-0.86c-1.49-1.29-1.67-3.54-0.38-5.04c15.67-18.22,18.88-42.98,18.91-43.22
								c0.24-1.96,2.06-3.34,3.98-3.11c1.96,0.24,3.35,2.03,3.11,3.98c-0.14,1.1-3.52,27.17-20.58,47.01
								C2077.42,1128.74,2076.43,1129.16,2075.42,1129.16z" class="color000000 svgShape"/><path fill="#fff" d="M2135.75,1131.32c0,0-6.07,15.49-15.36,29.43" class="colorffffff svgShape"/><path d="M2120.39,1164.33c-0.68,0-1.37-0.19-1.98-0.6c-1.64-1.09-2.09-3.31-0.99-4.96c8.95-13.44,14.94-28.61,15-28.76
								c0.72-1.84,2.8-2.74,4.63-2.02c1.84,0.72,2.74,2.8,2.02,4.63c-0.25,0.65-6.32,16.01-15.71,30.11
								C2122.68,1163.77,2121.55,1164.33,2120.39,1164.33z" class="color000000 svgShape"/><path fill="#ed7d31" d="M1849.86,1313.69c-21.2,94.43-66.8,276.58-109.75,310.62c-163.25,129.39-403.5-87.06-464.55-89.02
							c-81.33,124.36-78.04,273.17,23.42,342.59c0,0,455.02,164.12,684.27-94.65c102.42-115.61,142.58-278.92,158.33-392.89
							C2114.44,1383.86,1918.04,1338.51,1849.86,1313.69z" class="colorf6538a svgShape"/><g class="color000000 svgShape"><path d="M1983.25,1786.8c-0.84,0-1.69-0.3-2.37-0.9c-1.48-1.31-1.61-3.57-0.3-5.05c100.35-113.28,140.79-272.75,157.01-387.79
							l-8.16-1.93c-145.05-34.14-239.52-59.06-280.79-74.09c-1.86-0.68-2.81-2.73-2.14-4.58c0.67-1.85,2.74-2.81,4.58-2.14
							c41.01,14.93,135.21,39.77,279.98,73.84l11.34,2.68c1.79,0.43,2.96,2.14,2.71,3.97c-16.06,116.25-56.72,279.1-159.2,394.78
							C1985.22,1786.39,1984.24,1786.8,1983.25,1786.8z" class="color000000 svgShape"/></g><g class="color000000 svgShape"><path d="M1298.97,1881.45c-0.69,0-1.4-0.2-2.01-0.62c-52.22-35.73-81.4-94.12-82.16-164.43c-0.02-1.97,1.56-3.59,3.54-3.61
							c2.12,0.01,3.59,1.56,3.61,3.54c0.74,67.9,28.81,124.23,79.05,158.61c1.63,1.11,2.05,3.34,0.93,4.97
							C1301.24,1880.91,1300.12,1881.45,1298.97,1881.45z" class="color000000 svgShape"/></g></g><g fill="#0f1341" class="color000000 svgShape"><polygon fill="#c59270" points="1689.52 1132.69 1572.66 1471.35 1383.02 1327.82" class="color8670c5 svgShape"/></g><g fill="#0f1341" class="color000000 svgShape"><polygon fill="#e8dcd4" points="1710.79 1164.62 1773.84 1331.32 1694.89 1328.25" class="colord4e8e8 svgShape"/></g><g fill="#0f1341" class="color000000 svgShape"><polygon fill="#fff" points="1502.7 1203.01 1608.85 1121.8 1475.18 1097.88" class="colorffffff svgShape"/><path d="M1502.7,1206.59c-0.39,0-0.78-0.06-1.16-0.19c-1.13-0.39-1.99-1.32-2.3-2.48l-27.52-105.14
							c-0.31-1.18,0.01-2.44,0.83-3.33c0.83-0.9,2.06-1.31,3.25-1.09l133.67,23.92c1.4,0.25,2.51,1.3,2.84,2.68
							c0.34,1.38-0.17,2.82-1.3,3.68l-106.15,81.21C1504.24,1206.34,1503.47,1206.59,1502.7,1206.59z M1480.05,1102.38l24.74,94.53
							l95.44-73.02L1480.05,1102.38z" class="color000000 svgShape"/></g><g fill="#0f1341" class="color000000 svgShape"><path d="M441.23,1859.04c-36.84,0-75.3-21.69-99.08-57.66c-27.62-41.78-33.15-93.05-34.88-133.05
					c-0.09-2.07-0.17-4.17-0.24-6.29c-17.21-10.07-32.01-26.43-41.63-46.9c-14.76-31.42-15.91-66.71-15.27-93.94
					c1.78-75.14,19.55-149.09,36.73-220.61c0.46-1.92,2.4-3.11,4.31-2.64c1.92,0.46,3.1,2.39,2.64,4.31
					c-17.1,71.16-34.77,144.74-36.53,219.11c-0.62,26.45,0.47,60.66,14.59,90.73c8.29,17.65,20.64,32,35.01,41.46
					c-0.02-16.42,1.63-33.85,8.99-49.67c8.71-18.71,29.26-37.49,53.89-34.54c12.45,1.5,23.83,9.22,31.23,21.18
					c8.31,13.43,10.34,29.66,5.42,43.42c-8.98,25.17-37.8,41.9-67.1,38.91c-8.57-0.88-16.99-3.27-24.99-6.99
					c0.03,0.73,0.06,1.45,0.09,2.16c1.69,39.08,7.04,89.11,33.7,129.42c22.02,33.3,66.85,63.77,113.25,51.98
					c1.9-0.49,3.86,0.67,4.34,2.58c0.49,1.91-0.67,3.86-2.58,4.34C455.98,1858.16,448.63,1859.04,441.23,1859.04z M314.08,1657.78
					c8.25,4.3,17.02,7.04,25.96,7.96c26.09,2.66,51.74-12.04,59.65-34.2c4.13-11.55,2.3-25.83-4.77-37.25
					c-6.25-10.1-15.73-16.61-26-17.84c-20.15-2.43-38.66,13.49-46.56,30.46C314.95,1622.83,313.79,1640.95,314.08,1657.78z" class="color000000 svgShape"/></g><g fill="#0f1341" class="color000000 svgShape"><path fill="#ed7d31" d="M1437.79,792.32l19.12,130.6c4.3,29.37-15.98,56.61-45.35,60.91L1281,1002.94
					c-29.37,4.3-56.61-15.98-60.91-45.35l-19.12-130.6c-4.29-29.33,15.99-56.57,45.36-60.87l130.56-19.11
					C1406.26,742.71,1433.5,762.99,1437.79,792.32z" class="colorf6538a svgShape"/><path fill="#fff" d="M1375.67,884.15l-38.25,40.41c-10.52,11.12-29.22,5.35-31.66-9.76l-10.76-66.73
					c-2.44-15.11,13.5-26.46,26.98-19.22l49.01,26.32C1381.72,860.93,1384.04,875.31,1375.67,884.15z" class="colorffffff svgShape"/></g></svg>